<svg xmlns="http://www.w3.org/2000/svg" viewBox="0 0 41.22 43"><defs><style>.cls-1{fill:#baa282;}</style></defs><title>Asset 5</title><g id="Layer_2" data-name="Layer 2"><g id="Layer_1-2" data-name="Layer 1"><path class="cls-1" d="M37.5,18.43A1.56,1.56,0,0,1,39,20v6.14a1.56,1.56,0,0,1-1.54,1.54H5.25A2.22,2.22,0,0,1,3.62,27L.24,23.59a.75.75,0,0,1,0-1.1L3.62,19.1a2.22,2.22,0,0,1,1.63-.67H17.54V13.82h6.14v4.61ZM41,7.13a.75.75,0,0,1,0,1.1L37.6,11.61a2.22,2.22,0,0,1-1.63.67H3.72a1.48,1.48,0,0,1-1.08-.46,1.48,1.48,0,0,1-.46-1.08V4.61a1.48,1.48,0,0,1,.46-1.08,1.48,1.48,0,0,1,1.08-.46H17.54V1.54A1.47,1.47,0,0,1,18,.46,1.47,1.47,0,0,1,19.08,0h3.07a1.48,1.48,0,0,1,1.08.46,1.48,1.48,0,0,1,.46,1.08V3.07H36a2.22,2.22,0,0,1,1.63.67ZM17.54,29.18h6.14V41.46A1.56,1.56,0,0,1,22.15,43H19.08a1.56,1.56,0,0,1-1.54-1.54Z"/></g></g></svg>