<svg xmlns="http://www.w3.org/2000/svg" viewBox="0 0 55.24 44.99"><defs><style>.cls-1{fill:#baa282;}</style></defs><title>Asset 1</title><g id="Layer_2" data-name="Layer 2"><g id="Layer_1-2" data-name="Layer 1"><path class="cls-1" d="M39.27,13.73a14.9,14.9,0,0,0-1.89-.11A17.32,17.32,0,0,0,29,15.7a15.81,15.81,0,0,0-6,5.62,14.44,14.44,0,0,0-2.2,7.75,13.72,13.72,0,0,0,.62,4.1q-.94.08-1.83.08-.7,0-1.35,0T16.72,33l-1.2-.19q-.36-.05-1.47-.28l-1.35-.28L5.88,35.71l1.94-5.88Q0,24.36,0,16.62A14.51,14.51,0,0,1,2.63,8.23a18.08,18.08,0,0,1,7.12-6A22,22,0,0,1,19.56,0a22.84,22.84,0,0,1,9,1.78A19.72,19.72,0,0,1,35.59,6.7,15.08,15.08,0,0,1,39.27,13.73ZM15,12.53a2.36,2.36,0,0,0,.67-1.77,2.32,2.32,0,0,0-2.45-2.45A3.26,3.26,0,0,0,11.14,9a2.14,2.14,0,0,0-.89,1.77,2.11,2.11,0,0,0,.89,1.74,3.26,3.26,0,0,0,2.05.69A2.44,2.44,0,0,0,15,12.53ZM55.24,28.86a11,11,0,0,1-1.85,6,20.11,20.11,0,0,1-5,5.22L49.87,45l-5.37-2.94a28,28,0,0,1-5.88,1,18.6,18.6,0,0,1-8.39-1.9,15.28,15.28,0,0,1-6-5.17,12.63,12.63,0,0,1,0-14.24,15.28,15.28,0,0,1,6-5.17,18.59,18.59,0,0,1,8.39-1.9,18.13,18.13,0,0,1,8.17,1.9,16.1,16.1,0,0,1,6.14,5.18A12.1,12.1,0,0,1,55.24,28.86ZM28.66,12.53a2.39,2.39,0,0,0,.66-1.77A2.44,2.44,0,0,0,28.66,9a2.36,2.36,0,0,0-1.77-.67,3.26,3.26,0,0,0-2,.69A2.14,2.14,0,0,0,24,10.76a2.11,2.11,0,0,0,.89,1.74,3.26,3.26,0,0,0,2,.69A2.39,2.39,0,0,0,28.66,12.53Zm7,11.91A1.75,1.75,0,0,0,35,23.09a2.61,2.61,0,0,0-1.77-.59,2.09,2.09,0,0,0-1.94,1.94,1.88,1.88,0,0,0,.61,1.36,1.85,1.85,0,0,0,1.33.61A2.61,2.61,0,0,0,35,25.81,1.77,1.77,0,0,0,35.69,24.44Zm10.76,0a1.74,1.74,0,0,0-.7-1.35A2.62,2.62,0,0,0,44,22.5a2.09,2.09,0,0,0-1.94,1.94,1.88,1.88,0,0,0,.61,1.36,1.86,1.86,0,0,0,1.34.61,2.62,2.62,0,0,0,1.75-.59A1.76,1.76,0,0,0,46.45,24.44Z"/></g></g></svg>