<?xml version="1.0" encoding="utf-8"?>
<!-- Generator: Adobe Illustrator 22.1.0, SVG Export Plug-In . SVG Version: 6.00 Build 0)  -->
<svg version="1.1" id="Layer_1" xmlns="http://www.w3.org/2000/svg" xmlns:xlink="http://www.w3.org/1999/xlink" x="0px" y="0px"
	 viewBox="0 0 679.2 220" style="enable-background:new 0 0 679.2 220;" xml:space="preserve">
<style type="text/css">
	.st0{fill:#998675;}
	.st1{fill:#BAA282;}
</style>
<title>Asset 2</title>
<g>
	<g>
		<path class="st0" d="M647.3,162c-0.8,0-3.2,1.6-7,4.7l-7.7,7c-0.2,0.2-1.5,0.9-3.9,2.2c-3,1.5-6,2.2-8.9,2.2
			c-3.5,0-6.7-0.8-9.6-2.5c0.2-1.3,0.3-2.4,0.3-3.2c0-0.7-0.1-1.3-0.3-1.7l-1.7-2.9c-0.9-1.8-1.5-3.5-1.7-5.3
			c-0.1-1.7-0.2-4.4-0.4-8.2v-0.3l0.4-5.6c0-1.8-0.7-2.7-2.1-2.7c-0.9,0-2,0.4-3.4,1.3c-0.8-1.6-1.3-2.9-1.3-4
			c0-1.4,0.8-2.1,2.5-2.1c0.9,0,2.1,0.2,3.5,0.6l0.3-17.5c-1.4-0.4-3.1-0.6-5.2-0.8c-0.4-1.2-0.6-2.2-0.6-3.1c0-2.2,1.7-3.6,5.2-4.2
			c0.1-2.9,0.1-5.1,0.1-6.6c0-1.2-0.1-2.5-0.2-3.9c2.2-3.5,14.7-3.8,11.2-10.4c-0.1-0.2-0.3-0.4-0.4-0.6c1-1,1-2.6,0.2-3.7
			c1.5-1.4,1.2-4.4-1-5.1c-0.5-0.5-1.1-0.8-2-0.9c0,0-0.1,0-0.1,0c-0.2-0.1-0.5-0.1-0.7-0.1c-0.5,0-1.1,0-1.6-0.1
			c-5.2-0.4-10.4-0.7-15.6-0.9c-1.7-0.1-2.7,1-2.9,2.3c-0.3,0.7-0.4,1.6-0.1,2.4c-0.1,0.3-0.1,0.6-0.1,1c-2.5,1-4,2.8-3.7,5.8
			c0.2,1.7,1.1,2.8,2.3,3.4c-0.2,0.4-0.2,0.8,0.1,1.2c0.1,0.2,0.3,0.2,0.4,0.2c-0.2,1.3-0.2,2.7,0.3,3.7c0,0.1,0.1,0.2,0.1,0.4
			c-0.1,0.2-0.2,0.3-0.4,0.5c-0.4-0.9-0.8-1.8-1-2.8c-0.1-0.6-1-0.4-1,0.1c-0.1,1.2,0.1,2.8,0.6,4.2c-0.8,0.5-1.7,0.9-2.4,1.7
			c-0.1,0.1-0.2,0.1-0.2,0.2c-0.1,0.4-0.1,0.8-0.2,1.1c-0.2,0.8-0.4,1.6-0.4,2.5c0,0.1,0.1,1.8,0.3,1.8l4,1c0.2,1,0.3,1.9,0.3,2.7
			c0,1.3-1.1,2.7-3.4,4c0.1,12,0.4,20.2,0.8,24.4c0,2.5,0.3,4.7,0.8,6.4c-1.6,1.6-2.4,3.9-2.5,7c0,4.7-0.1,7.9-0.3,9.4
			c-0.2,1.9-0.3,3.2-0.3,4c0,0.5,0.5,2.2,1.5,5.3c0.7,2.3,1,3.5,1.1,3.6c0.9,1.6,2.1,3.1,3.6,4.6c3.4,3.2,6.2,4.7,8.7,4.7
			c0.9,0,2-0.1,3.4-0.3l1.5-3.5l2.5,0.7c1,1.7,2,2.5,2.8,2.5c0.5,0,2.3-0.9,5.4-2.7l4.7-1.5c7.7-2.6,13.5-4.9,17.3-6.8
			c5-1.6,7.9-2.8,8.5-3.6c0.7-0.8,1.3-3.6,2-8.4c0.1-0.7,0.3-1.9,0.6-3.6C649.3,162.5,648.1,162,647.3,162z"/>
		<g>
			<path class="st0" d="M601.5,50.7c0,0.2-0.1,0.3-0.2,0.4c0.1,0.1,0.2,0.1,0.2,0.2c0,0,0,0,0,0.1c0.3,0.5,0.2,1.2-0.1,1.7
				c0,0.1,0,0.1,0,0.2c0.3-0.2,0.6-0.3,0.9-0.3c0,0.1-0.1,0.2-0.1,0.4c-0.1,0.4-0.5,0.7-0.8,0.8c0.3,1.3,0.7,2.7,1.1,4
				c0.3-1.5,0.6-3,0.8-4.6c-0.1-0.2-0.1-0.3-0.2-0.5c0.5,0.2,0.8,0.6,0.7,1.3c-0.3,2.1-0.7,4.2-0.8,6.3c0.3,0.8,0.4,1.8,0.5,2.6
				c0.1,1.1,0.3,2.2,0.4,3.4c0.2,0.1,0.5,0.2,0.7,0.4c-0.2-0.7-0.3-1.4-0.4-2.1c0.1-0.1,0.3-0.1,0.5,0.1c0.1-0.3,0.2-0.6,0.2-0.8
				c0-0.4-0.2-0.7-0.3-1.1c0-0.1,0-0.1,0-0.2c0.2-0.6,0.5-1.3,0.7-1.9c-0.1-0.1-0.2-0.2-0.2-0.4c-0.8-2.1-0.8-4.7-1-7
				c-0.1-0.1-0.1-0.2-0.1-0.3c-0.4-1.3-0.7-2.7-0.9-4.1c-0.2,0-0.3,0-0.5,0.1c0,0,0,0,0,0c-0.1-1.4,0-2.9,0.1-4.3
				c0-0.6-0.1-1.2-0.1-1.8c-0.1-0.4-0.2-0.7-0.3-1c-0.2-1-0.3-1.9-0.4-2.9c-0.1,1.1-0.2,2.2-0.4,3.3c0,0.1-0.1,0.2-0.1,0.2
				C601.7,45.6,602,48.1,601.5,50.7z"/>
			<path class="st0" d="M606.2,72.8c0.3,0,0.6,0,0.9,0c-0.3-1.5-0.8-3-1-4.5c-0.3,0-0.6-0.1-0.9-0.1c0,0.1,0,0.3,0,0.4
				c0.1,0.2,0.2,0.5,0.2,0.8c0,3.1-0.8,5.7-2.6,8.3c-0.8,1.2-2.8,0.8-2.8-0.8c0-0.3,0-0.6,0-0.9c-0.3-0.2-0.5-0.5-0.5-0.9
				c-0.8-0.4-1.4-1.5-0.5-2.4c0.1-0.1,0.2-0.2,0.2-0.3c-0.3-0.9-0.3-1.7-0.1-2.6c-0.3-4.5-0.8-9-1-13.5c-0.1-0.1-0.3-0.2-0.4-0.3
				V14.5l-0.5,2.6c-0.3-0.1-0.5,0-0.6,0.3c-0.3,1.4-0.4,2.8-0.8,4.2c0,0,0,0,0,0c0,0,0,0,0,0c0,0,0,0,0,0c-0.2,0.6-0.4,1.2-0.6,1.8
				c-0.2,0.1-0.3,0.2-0.3,0.4c-0.2,0-0.4,0.1-0.5,0.3c-0.1,0.7-0.4,1.2-0.8,1.7c-0.1,0-0.2,0.1-0.3,0.2c0,0,0,0.1,0,0.1
				c-0.2,0-0.3,0-0.4,0.1c-0.2,0.2-0.4,0.4-0.5,0.6c-0.1,0.1-0.2,0.1-0.2,0.2c-0.3,0.4-0.3,0.2-0.5,0.9c-0.2,0.9,0.1,2.2,0.2,3.1
				c0,0.3,0,0.6,0.1,0.9c-0.2,0.3-0.3,0.6-0.5,0.9l-0.4,7.1c-0.1,2.4-1.6,4.5-3.8,5.2c0,0.1,0,0.3,0.1,0.4c0.3,0.1,0.6,0.4,0.7,0.9
				c0.3,1.8,0.3,3.6,0.4,5.4c0.1,1.8,1,3.2,1.4,4.9c0.3,1.2-1,1.9-1.9,1.5c0,1.7,0.1,3.4,0.1,5.2l-3.4,8c6,2.8,11.5,6.3,17,9.7
				l5.5-5.5L606.2,72.8z"/>
			<g>
				<path class="st0" d="M598.5,92.9c0-0.3,0-0.6,0-0.8l0-0.5c0.1-0.9,0.1-1.8,0.2-2.7l0.7-5.2l2.9-2.2c-5-4.2-10-8.3-15.6-11.9
					l-3.5,5.9c-1.1,0-2.1-1-3.4-1c-0.1,0.1-0.2,0.2-0.4,0.4c-0.5-0.7-1.4-0.2-2.4-0.4c-3.3-0.6-6.6-1.5-9.9-0.9
					c-1.3,0.3-2.3,1.1-2.8,2.3c0,0-0.1,0.1-0.1,0.1c-3-0.3-5.9-0.7-8.9-1.1c0,0,0,0,0,0c-0.8-0.1-1.6-0.2-2.4-0.4c0,0,0,0,0,0
					l-0.4-0.1c0,0,0,0,0,0c-4.2-0.6-8.3-1.3-12.5-2c-1.4-0.2-2.9-0.4-4.3-0.8c-0.2,0-0.4-0.1-0.6-0.1c0,0,0,0,0-0.1
					c-0.7-0.2-1.4-0.3-2-0.5c-0.1,0-0.2-0.1-0.3-0.2c-0.9-0.3-1.6-0.7-2.3-1.4c-0.7-0.6-1.7,0.2-1.4,1c0.6,1.3,1.5,2.4,2.1,3.7
					c0.3,0.7,0.4,1.4,0.5,2c1.5,0.8,1,3.4-0.8,3.5c-0.8,1.3-2.2,3.4-4,4.1c-1,0.3-0.5,1.8,0.5,1.7c2.4-0.3,4.7-0.4,7.1-0.5
					c0.5,0.1,1,0.2,1.4,0.1c0.2,0,0.4-0.1,0.6-0.2c0.1,0,0.1,0,0.2,0c1.8-0.1,3.3-0.5,4.9-0.6c0.2,0.3,0.4,0.6,0.7,0.8
					c0.8,0.7,1.9,1.1,2.9,1.3c1,0.1,2-0.2,2.8-0.9c0.1,0.1,0.1,0.2,0.2,0.2c0.2-0.1,0.5-0.3,0.7-0.4c4.3,0.6,8.5,1.2,12.8,1.8
					c0.8,0.1,1.5,0.2,2.3,0.3c0.1,0.2,0.2,0.4,0.3,0.5l2.8,0.1c0.3,0,0.6,0,0.8-0.1c2.4,0.3,4.7,0.5,7,0.3c0.1,0,0.2-0.1,0.3-0.1
					c0.4,0,0.6,0,0.8,0.1c1.1,0.1,2.5,0.5,4.2,1c0,0,3.9,4.3,6.9,7c-0.3,3.1,0.3,6.2,2.6,8.4c0.5,0.5,1.6,0.1,1.6-0.7
					c0.1-2,0.1-4-0.1-6.1c2.5-1.6,4.8-2.6,7.7-3.2C598.7,94.1,598.5,93.5,598.5,92.9z M549,80.3c-0.4-0.9-1.3-1.6-2.3-1.9
					c-0.6-0.5-1.5-0.7-2.3-0.6c-0.1-0.5-0.3-1-0.5-1.5c0.9-0.1,1.7-0.1,2.6-0.1c1.1,0.2,2.2,0.5,3.3,0.7c-0.4,0.3-0.7,0.6-1.1,0.8
					c0,0,0,0,0.1,0.1C549.6,78.5,549.5,79.6,549,80.3z M577.4,82.3c-1.7,1-3.6,1.6-5.5,2.1c-1,0.3-2-0.7-2.1-1.6
					c-0.1-0.6,0.1-1,0.4-1.4c-0.1-0.7,0.1-1.5,0.6-2c-0.6-1.5,1.3-3.4,3-2.2c1.2,0.8,2.7,1.1,3.8,2.1
					C578.2,80,578.5,81.6,577.4,82.3z"/>
				<path class="st0" d="M655.6,83.4c-0.5-0.2-1.1-0.4-1.7-0.7c-1-0.2-2-0.4-3-0.6c-2.5-0.3-5.1-0.4-7.5-0.9c0,0,0-0.1-0.1-0.1
					c0.2-0.2,0.3-0.5,0.4-0.8c-2.3-0.7-4.6-1.5-6.8-2.5c-0.2-0.1-0.4-0.2-0.5-0.3c-3.9-0.8-8.3-1.4-11.8-3.3
					c-0.1-0.1-0.2-0.1-0.3-0.2c-0.1-0.2-0.3-0.4-0.6-0.5c-5-1.6-10.1-3.1-15.2-4.6c0,1.5,0.4,3.1,0.4,4.6c0.2,0,0.4,0,0.6,0
					c0,0,0,0,0,0c0.2,0.2,0.4,0.3,0.6,0.3c1.6,0.8,3.2,1.5,4.9,2.2c0.2,0.3,0.6,0.5,1.1,0.4c0,0,0,0,0.1,0c0.5,0.2,1.1,0.3,1.7,0.5
					c0.2,0.1,0.4,0,0.6-0.1c0,0,0,0,0,0c0.3,0.1,0.6,0.1,0.9,0.1c0,0,0.1,0,0.1,0c1.2,0.2,2.5,0.3,3.8,0.5c0.1,0,0.2,0,0.3,0
					c3.8,0.3,7.8,0.1,11.6,0.1c2.4,0,2.7,2.7,1.4,4.2c0.1,0,0.2,0.1,0.4,0.1c0.9-0.5,2.1-0.5,2.9,0.2c0,0,0.1,0.1,0.1,0.1
					c0.1,0.1,0.2,0.3,0.4,0.5c0.2-0.1,0.5-0.2,0.8-0.2c4.5-0.2,8.7,0.9,13,2.3c0.2,0,0.3-0.1,0.5-0.1c2-0.1,8.6,0.6,10.6,0.7
					C663.6,85,657.2,84,655.6,83.4z"/>
				<path class="st0" d="M675.7,98.9c1.3-1.3,2.2-2.8,2.5-4.7l-72.6-9.5l7.8,16.8c0,0,42.1,0.5,54.5-0.7
					C671.1,100.4,673.3,100.2,675.7,98.9z"/>
				<path class="st0" d="M676.4,89.6c-0.7-0.6-1.6-1-2.5-1.4c-2.5-0.5-5-1.1-7.3-2.1c-0.2-0.1-0.4-0.2-0.5-0.3
					c-0.2,0-0.3,0.1-0.5,0.1c-1.6,0.6-0.5,2.9,1,2.2C668.9,87.3,673.3,88.6,676.4,89.6z"/>
			</g>
			<path class="st0" d="M599.6,28c0,0.3-0.1,0.6-0.2,0.8c0.2,0.8,0.3,1.7,0.5,2.6c0.3,1.6,1.2,5.5,0.3,7.1c-0.5,0.8,0.7,1.6,1.2,0.8
				c0-0.1,0.1-0.2,0.1-0.3c0-0.1-0.1-0.2-0.1-0.3c-0.8-2.9-0.7-6-0.7-9c0-0.1-0.1-0.1-0.1-0.2c-0.6-1.7-2.2-10.9-2.4-12.7
				c-0.1,0,1.1,7.5,1.1,7.5C599.4,25.5,599.5,26.8,599.6,28z"/>
		</g>
	</g>
	<path class="st0" d="M278.1,122.3c0.4-1.2,1-2.2,1.9-3.2c0.6-0.7,2.3-1.7,5.1-3c2.8-1.8,4.4-2.6,4.8-2.6c1.2,0,2,0.4,2.6,1.3
		l0.4,1.7l0.8,3c-0.2,0.7-0.3,1.3-0.3,1.7c0,0.6,0.4,1.3,1.1,2c1.3-0.4,3.1-1.2,5.3-2.4l4.1-1.4l4.1-2.7l2.6-1.1
		c1.4-0.7,2.2-1.1,2.3-1.1l2.1,0.4c0.1,0,0.2,0,0.3,0c0.3,0,2.5-0.7,6.6-2c0.5-0.1,1.4-0.2,2.9-0.2c1.1,0,1.9,0.2,2.3,0.5
		c0.1,0.1,0.7,0.7,2,1.9c0.8,0.2,1.2,0.3,1.4,0.3c0.1,0,1.1-0.5,2.8-1.4c0.1-0.1,0.3-0.1,0.5-0.1c0.8,0,1.8,0.5,2.9,1.5
		c1,0.9,1.8,2.3,2.2,4.2c-1,1-2.9,2.5-5.8,4.6c-1.4,1.8-2.5,2.7-3.1,2.7c-1,0-2.4-1-4.1-3.1c-1.2,0.1-2.1,0.2-2.9,0.2
		c-0.8,0-2.2-0.4-4.2-1.2c-1.6-0.6-3.1-1-4.8-1.2c-0.6,1.3-1.7,2-3.2,2.1c-1.8,0.1-3,0.3-3.4,0.4l-3.9,1.2c-0.3,0-0.8-0.2-1.6-0.7
		c-1.3,1.2-3.6,2.9-6.8,5.3c-2.1,1.5-3.1,4.1-3,7.9v0.3c0,0.8,0,1.8,0,3.1c0.1,1.2,0.1,2.1,0.1,2.9c0,0.7-0.7,1.8-2.2,3.2
		c1.1,1.2,1.7,2.2,1.7,3c0,0.5-0.1,1-0.2,1.7l1.5,0.4l0.3,2.9l0.5,17.4l-0.4,1.1l-2.5,1.4c-3.6,0.7-5.5,1.2-5.5,1.5
		c0,0.3,2,0.7,6.1,1.3l1.7-0.4c0.6,2.1,1,3.6,1,4.4c0,1.5-0.7,2.7-2.2,3.5c-0.6,0.3-2.2,0.6-5,1c-0.5,0.1-1.9,0.9-4.2,2.4
		c-0.4,0.3-0.8,0.4-1.4,0.4c-1.6,0-2.3-0.7-2.3-2c0-0.4,0.5-2.2,1.5-5.6c0.1-0.4,0.2-0.8,0.2-1.2c0-0.1-0.2-1.6-0.5-4.4
		c0-0.2,0.1-0.7,0.4-1.7l2.3-0.7c0.1-0.6,0.1-1.1,0.1-1.6c0-0.8-0.5-1.9-1.5-3c0-0.9,0-1.7,0-2.4c0-0.6-0.2-2.1-0.6-4.6
		c0.2-2.1,0.3-4,0.3-5.5c2.4-0.8,3.6-1.9,3.6-3.1c0-0.4-0.1-0.9-0.3-1.6c-0.8,0.2-1.4,0.3-1.9,0.3c-0.5,0-1-0.3-1.7-0.8
		c0-1.3,0-2.7,0-4.3v-2v-2.6v-0.8c0-0.5,0-1.1-0.1-1.8c0-0.6,0-1.2,0-1.6c0-1,0.4-2.4,1.3-4.2c-0.8-0.7-1.3-1.3-1.5-1.9
		c-0.1-0.2-0.2-2.3-0.4-6.3C280.2,125.3,279.5,124,278.1,122.3z"/>
	<path class="st0" d="M347.4,83L347.4,83c-0.1-2.4,1.5-4.8,5-7.5c0.8-0.6,1.6-1.4,2.5-2.5c0.1-0.1,0.7-0.6,1.9-1.6
		c2.4-3.6,3.9-5.6,4.5-5.9c1-0.7,1.8-1.1,2.4-1.1c0.3,0,1,0.5,2.2,1.5c1.2,0.9,1.9,2,1.9,3.3c0,1-0.6,1.9-1.8,2.7
		c-3,2.1-5.8,4.5-8.6,7l-2.7,1.8l-3.4,2.3c-1.8,1-2.9,1.5-3.1,1.5C347.7,84.5,347.4,84,347.4,83z"/>
	<g>
		<path class="st1" d="M244.3,130.3h-11.2l-0.4,1l-4.4,0.5l9.6,3.5l-8,1.8l0.4,3.6c-0.1,3.1-0.2,4.8-0.2,4.9
			c0.1,0.7,0.5,1.5,1.3,2.4c1-0.2,2.3-0.7,3.7-1.5c0.6,1,1,1.9,1.1,2.6c0.1,0.7-0.5,1-1.7,1h-0.8l-1.7,2.1c-0.2-0.2-0.7-0.7-1.5-1.5
			c-0.7-0.7-1.1-1-1.4-1c-1,0-1.5,0.7-1.3,2.1c0.1,0.6,0.2,1.3,0.5,2.1c-0.8,1.2-1.7,3.6-2.7,7.2l-2.1,3.9l-2,4.6l-2.7,3.4l-2.9,4.4
			l-2.9,2.4c-4.2,3.7-6.9,5.9-8.3,6.7l0,2.1c-1.4,0.7-2.5,2-3.4,3.8l-2.2-1.5c-2.8,1.3-4.6,2.3-5.2,2.9c-1.8,1.3-2.9,2.1-3.4,2.2
			c-2.1,0.7-3,1.4-3,2c0.1,0.6,0.6,1.4,1.4,2.2c-0.7,1.4-1.5,2.1-2.4,2.1c-0.6,0-1.7-0.4-3.1-1.2c-1.1,0.8-3.7,2.2-7.7,4.1l-2.7,1.7
			c-4,0-6.2,0-6.5,0.1c-0.6,0.2-2.2,0.9-5,2.1l-3.3,0.4c-3,1.1-4.8,1.7-5.3,1.7c-0.9,0-2-0.7-3.2-2c-1,0.4-1.7,0.7-2.3,0.7
			c-0.3,0-0.8,0-1.4-0.1c-0.7-0.1-1.3-0.1-2.1-0.1c-0.6,0-1.1,0-1.5,0.1l-1.5,0.3c-0.4,0-1.5-0.3-3.2-0.9c-0.7-0.2-2.9-0.7-6.5-1.3
			c-3.7-0.9-6.3-1.3-7.6-1.4c-1.6-1.1-3-1.8-4.4-2.3c-0.4-0.1-1.6-0.6-3.6-1.7c-1.7-0.9-3.1-1.5-4.1-1.8c-0.8-0.3-1.3-0.5-1.4-0.7
			c-0.3-0.1-0.7-0.8-1-2.1c-1.8-1.1-3.3-2.1-4.6-3.2c-0.6,0.2-1,0.4-1.3,0.4c-1.3,0-2.5-0.4-3.6-1.2c-0.7-0.5-1.1-1.2-1.2-2
			c-0.1-0.9-0.1-2,0.1-3.3c-2.5-1.4-4.8-2.9-6.9-4.7l-2.6-1.8c-0.3-0.2-0.9-0.9-1.6-2.1c-1.8,0.6-2.9,0.9-3.3,0.9
			c-0.6,0-1.3-0.3-2.1-0.8c-0.8-0.6-1.3-1.1-1.4-1.8c-0.1-0.6,0.4-1.6,1.4-3c-0.5-0.4-1.2-1.2-2.1-2.3c-0.3-1-0.7-1.8-1.5-2.4
			c-1.3-1.1-2.5-2.7-3.6-4.9l-2.6-0.7l0.8-0.2l-1.2-1.4c0.1-0.8,0.1-1.5,0-2.1c-0.1-0.4-0.2-0.7-0.3-0.9c-2.5-3-3.8-4.6-3.8-4.9
			l-0.2-2.6l-1.1-3.3c-0.5-1.7-1.4-3.2-2.7-4.7c-0.9-1-1.4-1.6-1.4-2l-0.3-4.7c0-0.1-0.2-0.5-0.4-1.2c-0.4-0.8-0.6-1.5-0.6-2
			l-0.1-0.6l-0.1-0.7l-0.4-3.6H46.9c0.1,1.1,0.1,1.8,0.1,1.9c0.1,2,0.1,3.1,0.1,3.3l0,0.2c0.9,6.5,1.8,10.8,2.8,12.9
			c0.6,1.5,1.1,3.4,1.5,5.7c0.5,2.9,1.5,4.5,3,4.9c1.1,0.3,1.9,0.7,2.5,1.2l0.6,2.7h-1.5c-0.8,0.9-1.2,1.6-1.1,2.1
			c0.1,0.5,0.9,2.4,2.6,5.6l5.2,6.7c1.4,2.1,2.2,3.3,2.4,3.5c0.3,0.3,0.5,0.6,0.7,0.8c1.3,0.9,2.1,1.5,2.3,1.7
			c0.3,0.4,0.6,1.6,0.9,3.5c0.7,0.6,1.9,1.8,3.8,3.8c1.7,1.9,2.9,2.9,3.5,2.9c0.1,0,0.7-0.2,1.8-0.5c1.3,0.7,2.6,1.1,3.8,1.1
			c0.7,1.1,1.3,2.1,1.8,3c0.4,0.7,0.8,1.6,1,2.8c1.1,0.4,1.8,0.8,2,1.2c0.3,0.4,0.5,1.1,0.7,2.1c1.7,0.8,4.4,2.3,8.3,4.4
			c3.9,2,6.8,3.5,8.5,4.7c0-6.2,0.3-9.3,0.7-9.3l0.4,0.7c0.7,1.3,1,2,1,2.1c1.6,4.2,2.4,6.3,2.4,6.4c0.6,1.3,1.2,2,2.1,2l0.3-0.1
			c1.4-0.4,2.7-0.7,3.9-0.7l1.6,1.8l-0.3,0.3c0.4,0.7,0.8,1.2,1.2,1.4c0.4,0.2,1.6,0.3,3.6,0.4l3.2,0.8l3.4,0.5l4.6,1.2l15.7-1.7
			l0.8-0.2l19.2-5l3.1-0.7l23.7-11.2l2.7-1.1l14.4-9.3c1-0.6,2-1.5,3.2-2.7c2-2.4,3.3-3.7,3.7-3.9c2.1-1.5,3.3-2.4,3.6-2.7
			c0.4-0.5,1.9-2.7,4.6-6.5c3-3.2,6.2-7.5,9.6-12.8c1.7-2.7,2.4-4.4,2.3-5.1l-0.1-1.1c0-0.5,0.6-1.1,1.8-1.9l-0.8-1.9
			c0.9-0.9,1.5-1.6,1.8-2.2c0.3-0.7,0.6-2.5,0.9-5.6l0.7-2.7l0.3-1.7c0.8-3.9,1.1-6.2,1-7C244.6,132.3,244.5,131.4,244.3,130.3z
			 M71,164.6l-1.5-0.5h-0.6l0-0.2h1.1l1.5,0.5l0.1,0.1l0,0.1H71z"/>
		<g>
			<path class="st1" d="M279,193.9h18.6v5.5h-6.4V220h-6v-20.6H279V193.9z"/>
			<path class="st1" d="M340.5,193.9h9.1c2.8,0,5,0.7,6.6,2.1c1.6,1.4,2.4,3.2,2.4,5.6c0,1.3-0.4,2.7-1.1,4.2
				c-0.7,1.4-2.1,2.6-4.1,3.4l7.8,10.9h-6.9l-7.2-10.1h-0.7V220h-6V193.9z M346.5,198.5v6.8h1.3c3.1,0,4.7-1.2,4.7-3.6
				c0-1-0.4-1.8-1.2-2.3c-0.8-0.6-1.9-0.9-3.4-0.9H346.5z"/>
			<path class="st1" d="M414.2,193.9h4.6l11.3,26.1h-6l-2.2-5.1h-10.6l-2.2,5.1h-6L414.2,193.9z M416.5,202.4l-3.3,7.7h6.6
				L416.5,202.4z"/>
			<path class="st1" d="M467.1,193.9h6l7,17.4l7-17.4h6.1L482.7,220h-5.2L467.1,193.9z"/>
			<path class="st1" d="M535.7,193.9h15.6v5.2h-9.6v5.3h9.6v5.1h-9.6v5.4h9.6v5.2h-15.6V193.9z"/>
			<path class="st1" d="M595.4,193.9h5.9v20.5h8.2v5.6h-14.1V193.9z"/>
		</g>
	</g>
	<path class="st0" d="M345.6,122.2c0-0.9,1-2.1,2.9-3.7c4.3-3.3,8-5.5,11.1-6.5l2.9,3c-0.6,1.6-1.2,3.9-1.6,6.8
		c-0.4,2.4-0.6,3.9-0.6,4.4v3.6l-1.7,2.3c0,1.6,0.7,3.2,2.1,4.7c-0.4,0.7-0.6,1.1-0.6,1.3l0.2,4.8l-0.1,1.1
		c-0.1,0.5-0.1,1.2-0.1,2.2l-0.5,18.6c0.1,1,0.5,3.2,1.3,6.7l0.2,4.1c0.4,1.9,0.6,3.1,0.6,3.4c0,1.4-0.6,2.6-1.8,3.7
		c-0.3,0.3-1.6,1.2-3.7,2.5c-3.2,2.5-5.1,3.9-5.6,4.1c-0.6,0.3-1.2,0.4-1.8,0.4c-0.8,0-1.6-0.4-2.3-1.2c0.3-1.6,0.4-2.7,0.5-3.2
		c0.1-0.8,0.4-2.2,1.1-4.3l0.1-4.8l0.7-9.5L349,165c0.1-1,0.6-1.6,1.6-1.6c0.3,0,0.6,0,1,0.1c0.3-1,0.5-1.8,0.5-2.1
		c0-0.5-0.2-1.5-0.6-3c-0.2-0.6-0.4-1.6-0.6-2.7l-1.7-1.3c0.2-1.4,0.3-2.5,0.3-3.2c0-0.3,0-0.8-0.1-1.5c0-0.5,0-1,0-1.4
		c0-0.8,0.3-1.8,1-2.8c-0.6-0.8-1-1.6-1-2.4v-0.8v-0.7l-0.2-2.2c4.2-0.8,6.3-1.5,6.3-2c0-0.1-0.1-0.2-0.2-0.3
		c-1-0.8-2.2-1.3-3.6-1.3c-1,0-2.3,0.1-3.8,0.2c0.2-1,0.3-1.6,0.3-1.9c0-0.1-0.3-3.3-0.8-9.6C347.4,123.6,346.8,122.9,345.6,122.2z"
		/>
	<path class="st0" d="M444.3,116.9l3.1-1.9c1,1.2,1.7,1.9,2,2.2c0.1,0.1,0.8,0.5,2,1c0.6,0.3,3.4,3.1,8.4,8.2
		c1.6,1.6,2.6,3.1,3.2,4.6c0.5,1.2,1.1,2.7,1.7,4.5c0.4,0.9,0.8,2.1,1.4,3.5l-0.7,0.7c-0.7-0.1-1.7-0.4-2.9-0.9l-3.7,1.4l-3.3-0.6
		l-2.9,0.8c-4-2.9-6.1-4.3-6.3-4.3c-0.4,0-1.9,1.3-4.6,4c-4.2-0.8-6.4-1.2-6.6-1.2c-1,0-2.3,0.1-3.7,0.3l-0.5-0.4
		c-1,0.1-3.9,0.2-8.5,0.2l-3.6,0.4l-4.5,0.4l-4.6,0.8l-4.1-0.1c-3.8,1.2-6.3,1.8-7.7,2c-0.3,2.2-0.6,3.7-1,4.6c-0.4,1-1.2,2-2.3,3.2
		c2.1,1.4,3.2,2.4,3.3,3c0.6,4.2,1.3,6.9,1.8,8.4l1.8,1l-0.5,3.6l3,0.8c0.6,2.7,1.5,4.4,2.5,5.4c1,0.8,2.6,1.4,4.9,1.8
		c0.3,2,0.8,3.2,1.6,3.6c0.5,0.4,1.7,0.6,3.5,0.8l1.7,2.5c0.7-0.1,1.3-0.2,1.8-0.2c0.4,0,2.3,0.8,5.8,2.4c0.8,0.4,1.6,0.6,2.5,0.6
		c0.8,0,2.5-0.4,5-1.2l6.2-0.7l4.8-1.4c2.3-0.1,3.8-0.3,4.6-0.6c1.1-0.5,3.1-1.6,6-3.4c2.9-1.8,4.5-3,5-3.6c1.2-1.4,2.3-2.9,3.3-4.7
		c0.5-0.8,1.4-1.2,2.7-1.2c0.6,0,1.4,0.4,2.5,1.3c-0.5,2.3-0.9,3.9-1.3,4.6c-2.7,4.6-4.4,7.7-5.2,9.2c-0.8-0.4-1.6-0.6-2.1-0.6
		c-0.4,0-1.5,0.6-3.2,1.9c-1.2,0.8-2.6,1.2-4.4,1.4c-4,1.1-6.8,1.8-8.4,1.9c-2.7,0.3-4.4,0.5-5.1,0.7c-2,0.6-3.1,1-3.1,1l-5.7-0.9
		l-3.4,0.6l-1.7,0.1c-1.6,0.2-2.8,0.3-3.6,0.3c-0.8,0-3.2-0.2-7.1-0.7l-1.8-0.2l-2-1.3c-4.9-1.5-7.6-2.4-8.1-2.6
		c-0.3-0.2-1.4-1.2-3.3-2.9c-0.1-0.1-1.3-0.8-3.4-2.1c-1.8-1.1-2.8-1.9-2.9-2.5l-1.8-3.1c-0.3-0.5-1.4-1.8-3.3-3.7
		c0.6-1,1-1.8,1-2.3c0-0.2-0.8-2-2.5-5.5c-0.5-0.9-0.7-3.7-0.7-8.3c0-1.4,0.5-3.8,1.4-7c0.8-2.5,1.3-4,1.7-4.4l3.3-3.9l2.1-4.6
		c2.2-2.1,4.7-4.4,7.6-7l7.1-4.4l7.2-5l2.6-0.5l7.4-2.3l4.8-0.4c3.8-1.4,5.9-2.1,6.3-2.1C440.5,111.7,443,113.5,444.3,116.9z
		 M433,131.5l1.7,2c1.3-0.3,2.2-0.4,2.6-0.5c1.8-0.3,3.5-0.7,5.3-1.4l5.6,0.5c0.1,0,0.2-0.3,0.5-1c0.1-0.4,0.1-0.7,0.1-1
		c0-0.6-0.4-1.3-1.2-2.1c-0.1-0.1-0.5-0.5-1-1.2c-1.6-2.1-2.5-3.1-2.9-2.9l-3.2-1.6c-0.4-0.2-1-0.9-1.9-2.2
		c-1.9-0.3-5.1-0.4-9.6-0.4l-1.9-0.1l-3.3,1.9c-0.1,0.1-1.9,0.6-5.4,1.4c-2.7,1-5.1,1.9-7.2,2.8c-0.5,0.3-1.7,1.4-3.8,3.3
		c-0.4,0.3-1.1,0.9-2.2,1.8v0.6l0.2,0.2l7.1,2.8l2.1,2.1l3.8-4.6c0.3-0.3,0.7-0.4,1.1-0.4c0.2,0,1.8,0.4,4.8,1.3c0.1,0,0.1,0,0.2,0
		c0.8,0,2.7-0.3,5.6-1C430.5,131.8,431.6,131.6,433,131.5z"/>
	<path class="st0" d="M491.3,123.2c0.5-2.3,2.2-4,5-5.3c3-2.4,5.2-3.6,6.6-3.6c1.5,0,2.4,0.4,2.8,1.2c0.1,0.2,0.2,2.1,0.3,5.6
		c0,0.9,0.7,2.7,2.2,5.3c2.6-3.3,4.1-4.9,4.6-4.9l3.4-2.1c2.6-2.1,4.3-3.2,5-3.2c0.8,0,1.7,0.7,2.5,2.1c3.6-2.6,7.1-3.9,10.6-3.9
		c0.7,0,1.3,0.1,1.9,0.3l1.9,0.6c2.5-0.9,4.1-1.4,4.6-1.4c0.7,0,2.5,0.4,5.5,1.1c1.8,0.4,3.4,0.6,4.9,0.8c0.9,1.1,1.6,1.7,1.9,1.8
		l2.2,0.4c1.7,0.3,3.7,2.1,5.9,5.5c1.4,2.1,2.1,6.9,2.1,14.2c-1.6,0-3.1,0.3-4.8,0.9c-1.6,0.6-2.4,1.1-2.4,1.7
		c0,0.1,2.2,1.3,6.5,3.6c0.5,0.3,0.8,0.9,0.8,1.9c0,1.1-0.6,3.1-1.9,5.9c-0.1,0.1-0.1,0.3-0.1,0.6c0,0.8,0.7,1.8,2,3.1
		c-0.2,1.4-0.3,2.5-0.3,3.5c0,0.6,0.5,2.3,1.5,5l0.2,5.4l0.3,4.7l-0.3,4.1c0,0.6,0.3,1.9,1,3.6c-1.8,1.3-3,2.1-3.7,2.5
		c-0.3,0.2-1.8,0.8-4.4,1.9c-0.5,0.3-1.9,1.2-4.3,2.7c-1.8-1.9-2.7-3.5-2.7-4.8c0-0.5,0.6-3,1.8-7.6c0.1-0.3,0.1-1.1,0.2-2.2
		c0.1-0.6,0.1-1.1,0.1-1.5l1.9-0.7c3.2-0.5,4.9-0.8,5-1.2l-1.1-0.7c-1.6-1-4-1.8-7.3-2.5c0.4-2.8,0.9-4.5,1.5-5.1l2.9-2.7
		c1.6-1.5,2.3-2.9,2.3-4.1c0-0.3-2.1-1.2-6.4-2.8l0.3-3.5l-0.5-5.2c0-0.1,0.1-0.3,0.3-0.8c0.3-0.6,0.5-1.6,0.8-2.8
		c-1-1.2-1.6-1.9-1.6-2.3l0.1-4.9c0-0.6-0.5-1.5-1.6-2.6c-1-1.1-1.6-2.2-1.6-3.3l-0.5-0.6c-1.6-0.5-2.4-0.8-2.6-1.1l-2.7-4.7
		c-0.5-0.8-1.1-1.3-1.8-1.3c-1.1,0-2.4,0.6-4,1.9c-2.4,2.1-4.5,3.1-6.4,3.1c-0.3,0-1.7-0.3-4-0.8l-1.9,1.9v0.5
		c-1.4-3.2-2.7-4.9-4.1-4.9c-0.1,0-0.4,0.1-1.1,0.4c-0.9,0.5-1.9,0.8-3,1.1c-1.4,0.4-3.1,1.3-5.3,2.6c-3.2,1.8-5,3.1-5.6,4
		c-1,1.6-1.6,3.1-1.6,4.6c0,0.1,0.1,2.1,0.2,6.2v0.3v0.1c0,1.2-0.3,1.9-0.8,2.2l-4.4,3.2c-0.5,0.3-0.7,0.6-0.7,1
		c0,0.6,0.6,1.3,1.8,1.9c2.6,1.4,4.1,2.2,4.5,2.6c0.3,0.4,0.5,1,0.5,1.9c0,0.2-0.1,0.8-0.2,1.9l0.2,7.2c0,0.4-0.6,1.4-1.8,2.9
		c-0.1,0.2-0.2,0.6-0.2,1.1c0,1.2,0.7,2.4,2,3.7l-0.3,0.3c0.1,1.6,0.2,2.6,0.2,3.1c0.3,3.8,0.8,6.8,1.6,8.9
		c-0.6,1.4-1.3,2.2-1.9,2.4c-0.3,0.1-1.3,0.3-3.2,0.6c-0.3,0-0.8,0.2-1.4,0.5c-0.8,0.3-1.3,0.5-1.6,0.6c-0.5,0.1-0.9,0.5-1.5,1.4
		c-0.5,0.8-1.3,1.2-2.2,1.2c-0.4,0-1-0.5-1.8-1.4c-0.5-0.5-0.8-1.1-0.8-1.7c0-0.5,0.1-1.1,0.2-1.8c0.5-1.9,0.7-3.1,0.7-3.4l0.1-7.4
		c0.6-1.9,0.9-3,0.9-3.3c0-0.6-0.1-1.4-0.4-2.3c-0.3-1.3-0.5-2.2-0.5-2.6c0-0.3,0.1-0.9,0.2-1.9c0.1-0.6,0.1-1.2,0.1-1.7
		c0-0.8,0-2.1-0.1-3.7c-0.1-0.8-0.1-1.6-0.1-2.3c0-0.8,0.2-1.9,0.7-3.2l2.7-1.3c-0.1-0.6-0.4-1-0.7-1.4c-0.4-0.2-1.4-0.4-3.1-0.5
		c-0.1-1.2-0.1-2.2-0.1-3c0-0.6,0.1-1.6,0.4-2.9c0.1-0.3,0.1-0.7,0.1-1.2c0-1.5-0.4-4.3-1.1-8.3l2.2-1.3c-1.2-1.8-1.9-2.9-2-3.2
		c-0.1-0.2-0.3-0.9-0.4-2.2C493.6,126.5,492.8,125,491.3,123.2z"/>
	<g>
		<path class="st0" d="M42.4,102.8c-0.3-0.7-0.2-1.5,0.3-2.1c-1.6,0-3.1,0-4.7,0.1c1.4,1.4,2.9,2.7,4.5,3.8
			C42.3,104,42.2,103.3,42.4,102.8z"/>
		<path class="st0" d="M45.2,106.1c0.8,0.4,1.6,0.7,2.4,1c0.3-0.6,0.6-1.1,0.9-1.7C47.4,105.7,46.3,105.9,45.2,106.1z"/>
		<path class="st0" d="M52.2,98.6c0,0.2-0.1,0.5-0.2,0.7c0.2,0.3,0.4,0.7,0.5,1c0.7-0.7,1.4-1.5,2.2-2.2c-0.4-0.4-0.6-0.8-0.9-1.3
			C53.2,97.3,52.7,98,52.2,98.6z"/>
		<g>
			<path class="st0" d="M263.9,94.1l-7.5,0.6l-6.8-4.1l-5.9,0l-6,0.6l-0.3-0.2c-0.3-1.5-0.5-2.5-0.8-2.9c-1-1.4-2.8-3.1-5.4-5
				c0-0.2-0.1-0.5-0.1-0.7c-0.1-0.9,0.3-1.9,1.2-2.9c-0.4-0.9-1.5-2.4-3.4-4.4c-0.3-0.7-0.7-1.4-1.2-2.2l1.6-3.1l1.3-6.6l3.9-5.6
				l0.1-9l6-6.7l2-8.8l-7.6,5.2l-7.8,3.2l-8.2,2.2l-6.7,1l-5.3,4.2l-3.4,1.2c-1.7-1.1-2.7-1.6-2.9-1.6c-0.7,0-1.5,0.4-2.4,1.2
				c-1-2.1-1.9-3.3-2.7-3.8c-0.9-0.5-2.6-1.1-5.1-1.8c-0.4,0.4-0.9,0.8-1.6,1.1c-0.7-1.7-1.4-2.6-2-2.8l-1.5-0.5l-1-0.3l-0.2-0.9
				l-0.5-5.1l-0.7-5.1l-3.4-6.1l2.1-6.9l-2.6-5.4l-3.1,4.9l-5.3,4.1l-4.5,4.9l-3.4,3.9l-2.5,4.6l-1.8,1.9c-0.6-0.1-2.2-0.5-4.9-1.2
				c-0.9-0.2-3.2-0.4-6.9-0.6c-0.6,0-1.2,0-1.9-0.1c-1.4-0.1-2.5-0.2-3.2-0.2c-0.3,0-1.5,0.2-3.4,0.6l-3.9,0.5l-0.1,0l5.9-1.5
				l-4.2-5.1l-3.7-5.5l-3.2-5.9l-5.9-6l-5-6.8l-6-4.5l-1.8,7l-1.8,8.2l-1.2,8.3l-1.1,6.5l-2.1,6.4l0.7,6.6l-3,1.4
				c-0.2,0.1-0.8,0.7-1.6,1.9c-1,0-2,0.5-2.9,1.4c-0.5,0.6-1.7,1.3-3.4,2.1c-3.5,1.4-5.4,2.4-5.8,2.9c-0.2,0.2-0.4,0.5-0.5,0.9
				l-1.6-0.4l-4.8-2.4l-4.5-3.2l-6.4-2.2l-6.3-2.6l-5.5-1.3l3,4.8l1.7,6.6l1.7,6.6l0.8,3.9c0.2-0.7,0.4-1.5,0.6-2.4
				c0.8,1.9,1.7,3.7,2.7,5.4c-0.6,0.4-1.4,0.4-2.1,0.2l1.6,2.9l0.8,1.1c-0.8,1.2-1.2,2.2-1.1,3.2c0,0.2,0.1,0.6,0.1,1l-1.3,1.5
				l-1-0.5c-1.5,1.9-3.4,5-5.9,9.1c-0.3,0.4-0.6,1.2-1.1,2.3l-5.1-0.4l-6.1,4l-6.6,0.5l-8.6-1l-8.4,1l-7.5,2.9l6.1,5l6.3,5.6
				l6.5,5.3l5.2,4.1l3.8,5.8l6.8,1.8l0-0.3c0.3,0.4,0.4,0.7,0.5,1.1c0.1,1-0.1,1.5-0.8,1.5c-0.7,0-1.5-0.2-2.4-0.7
				c-0.7,0.9-1.1,1.9-1.3,3.2h13l-0.5-3.8c0,0,0.1,0,0.1,0c0.8,0,1.7,0.1,2.5,0.1c0.2,0.2,0.6,0.4,1,0.5c21.8,3.2,43.7,6.1,65.6,8.9
				c1.1-0.2,2.3-0.3,3.5-0.4c0.4-1.1,1-2.1,1.7-3c-13.9-1.7-27.9-3.5-41.8-5.4c-1.8,0-3.7-0.1-5.6-0.2c-3.6-0.2-7.2,0.4-10.5-1.3
				c-0.6-0.3-0.8-0.8-0.9-1.3c-1.8-0.5-3.7-1.3-5.1-2.5c-1.6-3.6-3.1-7.2-4.7-10.8c0-0.3-0.1-0.6-0.3-0.8c-0.2-0.6-0.5-1.1-0.7-1.7
				c0-0.1-0.1-0.1-0.1-0.1c-0.2-1.1-0.2-2.4-0.3-2.9c-0.2-1.1-0.3-2.2-0.4-3.3c4.8,1.4,9.6,2.5,14.4,3.4c0.3,0.1,0.6,0,0.8-0.2
				c10.4,4.9,20.9,9.4,31.6,13.5c0.5-0.1,1.1-0.3,1.6-0.4c1.6-0.3,3.1,0.4,4.7-0.1c2.1-0.6,3,2.4,1.2,3.3c6.4,2.3,12.9,4.6,19.4,6.6
				c0.9-0.8,2.2-1.3,4-1.2c0,0,0,0,0,0c2.7-0.9,5.7-1.2,8.5-0.7c0.1-0.8,0.2-1.6,0.3-2.4c2.9-7.2,5.9-14.4,9.1-21.5
				c-0.1-0.3-0.1-0.6,0-1c1-3.9,3-7.3,5.3-10.4c1.4-2.9,2.8-5.8,4.2-8.6c2.8-4.3,5.6-10,10.9-11.5c0.4-0.1,0.7-0.3,0.9-0.6
				c3-1,6.1-1.9,9.1-2.7c-0.7,2-1.3,4-1.7,6.1c-0.2,0.2-0.3,0.5-0.4,0.8c-0.5,3.1-1.7,6-2.9,8.8c0,0.2,0,0.4-0.1,0.6
				c-0.8,2.4-1.8,4.8-2.4,7.3c-0.1,0.5-0.4,0.8-0.8,1c-0.7,0.8-1.4,1.7-2.1,2.5c-1.4,3.2-3.3,6.1-5.7,8.9c-0.5,0.6-1.1,0.7-1.6,0.5
				c0,0.2-0.1,0.4-0.2,0.5c-1.5,2.9-3.4,5.4-5.3,8.1c-0.9,1.3-2.7,0.8-3.2-0.2c-4.4,4.7-8.9,9.3-13.5,13.7c4.6,0.9,7.5,3.4,9.4,6.7
				c0,0,0,0,0,0c2.7-0.5,5.5-0.5,8.3-0.1c-0.2-0.2-0.4-0.3-0.7-0.4c0,0,0,0-0.1,0c21.2-1.3,42.3-3.9,63.2-7.7c0,0,0.1,0,0.1,0
				c-0.3,0.9-1.4,1.5-3.1,1.8c1.5-0.1,2.9-0.2,4.2-0.2c2,0,3.7,0.6,5.1,1.7c0.1,0.1,0.2,0.2,0.2,0.4l-0.6,1.5h8c0-0.4,0-0.7,0.1-1
				c0.2-1.1,0.3-1.7,0.3-1.9c0-0.2-0.3-0.7-0.9-1.6l-1.1-1.7c-0.6-0.4-1-0.7-1.4-1l3.5-2.2l5-3l3.3-5.1l6.9-3.1l5.4-5.1l3.2-4.9
				L263.9,94.1z M52.2,110.5c-0.5,1.3-1.5,1.8-2.8,1.6c-6.9-1.1-13-6.7-17.1-12.1c-1.2-1.6,0.5-3.3,2-3.5c3.8-0.4,7.6-0.2,11.3-0.3
				c0-0.1-0.1-0.1-0.1-0.2c-1.4-2.6,2.6-5,4-2.3c0.3,0.5,0.6,0.9,0.9,1.2c2.1-2.4,4.2-4.7,7.3-6c2.8-1.1,4,3.4,1.2,4.5
				c-0.1,0-0.2,0.1-0.4,0.2l1.2,1.7c1.9,0,3.2,2.6,1.6,3.9C57.6,102.5,54,105.7,52.2,110.5z M65.1,119.3c-1.1-0.2-2,0.5-2.3,1.4
				c-0.7,0-1.5-0.1-2.2-0.1c-0.1,0-0.2,0-0.3,0.1l-0.3-2.7l-0.3-0.7c0-0.2,0-0.4,0-0.6c0.9-2.5,1.4-3.9,1.4-4.2c0-0.1,0-0.3,0-0.6
				c2,2.6,4,5.2,6,7.7C66.4,119.5,65.8,119.4,65.1,119.3z M67.2,114.4c-0.5,0.1-0.9,0.3-1.1,0.7c-1.5-2-3-3.9-4.5-5.9
				c-0.2-0.3-0.4-0.4-0.7-0.4c0,0,0,0,0-0.1l0.9-1.7l0.4-4.7l0.6-0.9c0.1,0.7,0.2,1.4,0.3,2.1c0.2,1.3,0.1,3.3,1.2,4.2L67.2,114.4z
				 M213.1,48.5c4.6-0.5,8.8-3,13.5-2.7c0.5,0,1,0.2,1.4,0.6c0.8-0.2,1.5-0.3,2.2-0.3c1.9-0.1,2.7,2,2,3.5c-0.9,1.8-2.1,2.9-3.3,4.4
				c-0.6,0.8-0.8,1.9-1.3,2.9c-0.9,1.8-2.3,3.4-4.5,3.4c-1.4,0-2.7-0.5-3.8-1.3c-0.9,0-1.7-0.4-2.1-1.1c-0.2,0.6-0.5,1.1-1.1,1.4
				c0,0-0.1,0-0.1,0.1c0.4,0.8,0.8,1.5,1.1,2.3c0.2,0.4,0.3,0.8,0.3,1.2c0.1,0,0.3,0,0.4,0.1c1.3,0.3,1.9,1.5,1.9,2.7
				c0,1.1-0.7,1.9-1.6,2.2c-0.3,0.6-0.8,1-1.4,1.2c-1.2,0.4-2.4-0.5-2.8-1.6c-0.2-0.6-0.5-1.2-0.7-1.8c-0.2-0.5-0.1-1,0.1-1.4
				c0,0,0-0.1-0.1-0.1c-0.5-0.9-0.9-1.8-1.4-2.8c-0.3-0.7-0.4-1.3-0.1-2c-0.2-0.6-0.2-1.4,0.1-2c0.4-0.8,1.2-1.5,2-2
				c0.3-0.2,0.6-0.3,1-0.3c-1-0.9-1.9-1.7-2.9-2.1C209.7,51.7,211.1,48.7,213.1,48.5z M221.7,99.1l0.1,0.3c0,0.2,0.7,0.9,1.9,2.1
				c0,0.3,0.1,0.6,0.2,0.9c-2.6,0.4-5.1,0.8-7.7,1.4c-0.6,0-1.2,0-1.8,0c0.6-0.4,1.2-0.8,1.8-1.3c0,0,0.1,0,0.2-0.1
				C218.1,101.2,219.9,100.2,221.7,99.1z M218.4,96.8c0.6-0.8,1.2-1.5,1.9-2.1l0.8,2.5c-0.5,0.3-1.1,0.6-1.6,0.9
				C219.3,97.5,218.9,97,218.4,96.8z M224.3,104.3c0.1,0.5,0.3,1,0.4,1.6c-1.1-0.2-2.3-0.3-3.4-0.5c0-0.2,0-0.5-0.1-0.7
				C222.3,104.6,223.3,104.5,224.3,104.3z M212.2,81.3c0.1,0,0.1-0.1,0.2-0.1c0,0.1,0.1,0.2,0.1,0.2l2.5,2.9l0.3,0.5
				c-1.9,0.4-3.9,0.7-5.8,0.9c-1.2-0.2-2.3-0.2-3.5-0.2C207.9,83.9,210,82.5,212.2,81.3z M207.9,81.2c1-0.9,2-1.7,3-2.6
				c0.2,0.3,0.3,0.6,0.5,0.9c-0.1,0-0.2,0-0.3,0.1c-1.1,0.5-2.1,1.2-3.1,1.8C208.1,81.3,208,81.3,207.9,81.2z M216.4,86.6l0.5,0.9
				l0.8,1.1c-2.1-0.3-4.3-0.7-6.4-1.1C213.1,87.2,214.8,86.9,216.4,86.6z M194.5,63c-1.1,2.3-2.1,4.6-3,6.9
				c-0.1-0.1-0.3-0.1-0.4-0.2c0.5-2.2,1.1-4.3,1.9-6.3C193.5,63.2,194,63.1,194.5,63z M162.6,42.9C162.6,42.9,162.7,42.9,162.6,42.9
				c0.2-0.3,0.3-0.5,0.6-0.8c1-1.1,2-2.1,3.2-3c-0.3-0.5-0.5-1.1-0.7-1.7c-0.5-0.2-0.9-0.7-1.1-1.4c-0.5-1.6,0.2-2.9,1.3-3.7
				c0.9-3.1,3-5.8,5.7-6.2c0.6-0.5,1.3-0.9,2.2-1.3c2.7-1.1,5.1,2.8,2.3,4c-0.2,0.1-0.4,0.2-0.6,0.3c-0.1,0.3-0.2,0.5-0.4,0.7
				c0.6,0.3,1.1,0.7,1.5,1.5c0.9,1.7,0.3,3.5-1,4.7c0.4,0.4,0.6,0.9,0.6,1.5c0,0,0,0.1,0,0.1c0.1,0.3,0.2,0.7,0.3,1.1
				c0.7,0.4,1.3,1.2,1.2,2c-0.1,1.4-0.7,2.5-1.9,3.2c-1.1,0.7-2.8,0.2-3.3-1c-0.3-0.3-0.5-0.6-0.6-1.1c-0.1-0.4-0.1-0.8-0.2-1.2
				c-0.2,0.2-0.4,0.5-0.6,0.6c-1.8,1.2-3.3,2.5-4.7,4.1c-0.3,0.3-0.6,0.5-1,0.6c0,0.6,0,1.4-0.1,2.2c0.7,0.3,1.3,0.6,1.9,0.9
				c-0.8,1.1-1.7,2.3-2.4,3.4c-0.7-0.4-1.6-0.4-2.3,0c0.1-3,0.2-6,0.3-9.1C162.8,43.2,162.7,43,162.6,42.9z M158.9,46.2
				c0.5-0.4,1-1,1.3-1.6c0.2-0.4,0.4-0.7,0.6-1c-0.1,3.6-0.2,7.3-0.3,10.9c-0.1-0.3-0.1-0.5-0.2-0.8c-0.2-0.7-0.6-1.1-1.1-1.3
				c-0.6-2.3-1.4-4.6-2.4-6.8C157.6,45.8,158.3,45.9,158.9,46.2z M154.4,45.2c0.6,1.2,1.2,2.5,1.6,3.8c-0.7-1.3-1.5-2.6-2.3-3.9
				C153.9,45.1,154.1,45.2,154.4,45.2z M142.8,41.7c-0.2,0.6-0.4,1.2-0.5,1.8l-0.2-4L142.8,41.7z M139.4,43.1c0.2,0,1.1,0.3,2.7,0.8
				c-0.4,1.6-0.7,3.2-0.9,4.8c-0.6-0.1-1.2,0.1-1.7,0.5c-0.2-2-0.4-4-0.6-6.1C139.2,43.1,139.4,43.1,139.4,43.1z M137,43.5
				c0.2,2.7,0.5,5.4,0.8,8.1c-0.1,0.8-0.2,1.6-0.2,2.5c-0.6-1.5-1.3-3.1-2-4.6c-0.7-1.3-2.1-1.2-3-0.5c-1.2-1.7-2.4-3.4-3.8-4.8
				c1,0.1,1.8,0.2,2.5,0.2c0.9,0,1.6-0.1,2.2-0.2C135,43.8,136.1,43.6,137,43.5z M114.6,45.5c-0.3-0.3-0.4-0.8-0.4-1.4v-6.6
				c0-1.9,2.1-2.8,3.5-1.9c0.3-0.8,0.5-1.6,0.7-2.4c-0.6,0.1-1.2,0-1.7-0.3c-0.9,2.5-4.3,1.9-4.5-0.7c-0.2-3.1,0.2-6.2,0.5-9.3
				c0.2-1.7,1.8-2.4,3.1-2.1c-0.2-0.3-0.4-0.6-0.7-0.8c-2.6-1.5-0.2-5.5,2.3-4c3.3,1.9,3.6,5.5,2.9,8.8c1-0.7,2.5-0.8,3.4,0.6
				c0.1,0.2,0.2,0.3,0.2,0.5c1.6,1.1,2.9,2.7,4.1,4.2c1.3,1.6,2.9,3.6,3.6,5.7l1.7-0.1l-1.7,0.2c0.2,0.5,0.3,1,0.4,1.5
				c0.3,2.3-2,3.9-3.9,2.2c-1.1-1-2.2-1.9-3.4-2.7c-0.7,0.3-1.5,0.3-2.2-0.3c-0.1,0-0.2,0-0.3,0c-0.5,1.6-1.2,3.1-2.3,4.4
				c-0.3,0.3-0.6,0.5-1,0.6v2.7c0,0.2,0,0.3,0,0.4l0.5-0.1c-0.5,3.3-1,6.5-1.6,9.8c-0.5,0.2-0.9,0.6-0.8,1.4c0.3,3.2,0.6,6.5,1,9.7
				c-0.9-2.1-1.8-4.1-2.6-6.2c-1.1-4-3.3-7.9-5.2-11.5L114.6,45.5z M108.1,48.1c0.6,1.2,1.2,2.4,1.8,3.6c-0.8-1.2-1.6-2.3-2.4-3.5
				L108.1,48.1z M103.5,63.4c0-4.3,0.1-8.6,0.1-12.8c0.7-1.1,1.3-1.8,1.7-2c2,2.7,3.9,5.6,5.6,8.6c-0.2,0.5-0.3,1.1,0,1.7
				c6.8,16.1,13.7,32.3,20.5,48.4c-8.5-10.6-17-21.1-25.6-31.6c-0.1-0.2-0.2-0.5-0.3-0.7c-1-0.3-1.8-1.2-2-2.3
				c-0.2-1.1,0.1-2.3,0.3-3.4c-0.3-1.7-0.5-3.5-0.5-5.3C103.4,63.8,103.5,63.7,103.5,63.4z M101.2,61.2c0.1-0.7,0.2-1.4,0.4-2.1
				c0,0.9,0,1.7,0,2.6c-0.1,0-0.2,0.1-0.4,0.1C101.2,61.7,101.2,61.4,101.2,61.2z M96.4,56.7l-0.2-1.6c0.8-0.7,1.9-1.3,3.3-1.9
				c-0.1,1.3-0.2,2.6-0.2,3.9C99,59.1,98.8,61,98.5,63c0.5,0.3,0.8,0.9,0.8,1.5c0,0.9-0.3,1.7-0.6,2.5c-0.4,0.9-1.6,1-2.4,0.6
				c-0.9-0.5-1-1.6-0.6-2.4c0,0,0,0,0,0c0-0.1,0.1-0.2,0.1-0.3c0-0.1,0-0.2,0.1-0.2c0,0,0-0.1,0-0.2c0,0,0,0,0,0
				c-0.4,0-0.8,0.1-1.1,0.4c-0.1-0.1-0.2-0.1-0.3-0.2c-1.3-1-3.7-2.2-5.2-3.6C91.5,59,93.9,57.6,96.4,56.7z M87.8,62.3
				c0.9,0.8,2,1.4,3,2.1c1,0.7,2,1.4,3,2.1c0,0.5,0.1,0.9,0.5,1.4c6.4,7.8,12.8,15.6,19.2,23.5c0.7-1,2.7-1.1,3.2,0.5
				c0.9,2.4,2.9,5.9,5.4,7c1.5,0.7,1,2.4-0.2,3c2.4,2.9,4.7,5.9,7.1,8.8c-9.1-6.3-17.9-13-26.6-19.7c-0.3,0.3-0.7,0.5-1.2,0.5
				c-1.5,0-2-1.5-1.5-2.6c-3-2.3-5.9-4.7-8.9-7c-1.8-3-3.2-6.2-4.1-9.6c-0.2-0.6-0.5-0.9-1-1c-0.5-1.9-0.9-3.9-1.2-5.9
				C85.5,64.5,86.6,63.5,87.8,62.3z M83.7,73c0.4,1.5,1,3,1.5,4.5c-1.2-1-2.5-2-3.7-3c-1.2-0.9-2.6-0.4-3.2,0.6
				c-0.7-0.3-1.4-0.7-2.1-1c1.3-1.5,2-2.4,2.2-2.6c0.4-0.6,0.9-1.6,1.5-3.1c0.8-0.4,1.8-0.9,2.8-1.6c0.3,1.8,0.7,3.5,1.1,5.3
				C83.6,72.3,83.6,72.6,83.7,73z M75.1,52.9c0.7,1.8,2.9,2.8,4.2,4.1c1.3,1.3,2.1,2.8,2.2,4.5c-3.8-2.5-8-5.4-10.8-9.1
				C71.6,51,74.2,50.9,75.1,52.9z M67.7,58c0.6-1.3,1.4-2.5,2.5-3.1c3.1,3.5,7.3,6.3,11,8.7c-0.6,1.2-1.9,2-3.2,1.2
				c-1.1-0.7-1.9-1.7-2.8-2.6c-0.2-0.2-0.4-0.4-0.6-0.6c-0.4-0.2-0.8-0.5-1.1-1c0,0,0,0,0,0c-0.4-0.3-1-0.6-1.2-1
				c-0.3,0.6-0.6,1.4-0.6,1.5c-0.4,1.1-0.7,2.3-1,3.4C69.4,62.4,68.5,60.2,67.7,58z M64.6,96.5c0.9-3.2,1.5-5.3,1.9-6
				c0.5-1,0.9-1.9,1.3-2.7c1.7,2.3,3.5,4.6,5.1,7c-1.5,0.5-2.3,2.7-0.5,3.6c0.3,0.1,0.6,0.3,0.9,0.4C70.4,98.1,67.5,97.4,64.6,96.5z
				 M75.9,95.6c-2.3-3.3-4.7-6.6-7.1-9.8c1.1-2.2,1.8-3.5,2.3-4.1c0.3-0.4,0.5-0.8,0.7-1.2c0.1,0.2,0.1,0.4,0.2,0.6
				c-0.1,0.2-0.1,0.4,0,0.6c1.3,4.4,2.9,8.7,4.8,12.9c0.1,0.5,0.3,1.1,0.5,1.6C76.8,96,76.4,95.8,75.9,95.6z M111.4,111.1
				c-2-0.3-3.9-1-5.8-1.8c-2.9-1.1-5.6-0.8-8.6-0.9c-0.6,0-1-0.3-1.3-0.6c-0.3-0.1-0.5-0.2-0.8-0.5c-1-1.1-1.7-2.4-2.1-3.9
				c-3.7-1.6-7.4-3.3-11.1-5c-1.3-1.7-2.1-3.7-2.5-5.9c0-0.2-0.1-0.3-0.1-0.4c0.3-0.3,0.4-0.7,0.1-1.2c-2.7-4.1-4.8-8.4-6.3-13.1
				c0.7-0.8,1.3-1.5,1.9-2.2c1.6,0.7,3.1,1.5,4.6,2.3c9.8,7.9,19.7,15.8,29.8,23.4c0.3,0.1,0.6,0.1,1.1-0.1c1-0.3,1.8,0.3,2.2,1.2
				c0.2,0.4,0.2,0.8,0.3,1.3c0,0.1,0.1,0.3,0.1,0.4c7.1,5.3,14.4,10.5,21.8,15.4C126.9,117,119.1,114.1,111.4,111.1z M140.4,118.4
				c-0.4-1-0.8-2-1.2-2.9c-0.7,0.3-1.6,0.2-2.2-0.6c-2.1-2.9-3.8-6.1-3.7-9.8c0-0.7,0.4-1.2,0.9-1.5c-3.6-8.5-7.2-17-10.8-25.5
				c-0.2-0.7-0.3-1.5-0.5-2.2c-2.4-2.1-3.5-5.1-3.4-8.4c0-1,0.8-1.6,1.6-1.7c-0.5-3.4-0.9-6.7-1.1-10.1c0-0.3-0.1-0.5-0.2-0.7
				c0.6-3.6,1.2-7.2,1.7-10.8c1.5-0.3,2.4-0.4,2.6-0.4c0.4,0,0.9,0,1.4,0.1c3.1,2.5,5.3,5.8,7.4,9.2c1,2.3,1.9,4.6,2.7,6.9
				c0.6-0.1,1.3,0.1,1.7,0.8c1.5,2.7,1.5,5.7,0.9,8.6c0.8,1.8,1.3,3.6,1.6,5.6c0.1,0.6-0.3,1.1-0.8,1.4c0.2,1.6,0.5,3.3,0.7,5
				c0.5,0.3,0.9,0.9,0.9,1.5V83c0,0.5-0.2,0.9-0.5,1.2c1.3,11.3,1.5,21.7,1.1,30.8c-0.1,1.5,0,3,0.5,4.1
				C141.2,118.9,140.8,118.7,140.4,118.4z M148.9,110.9c-2.3,0-2.3-3.5,0-3.5C151.2,107.3,151.2,110.9,148.9,110.9z M151,88.3
				c-0.1,0.4-0.2,0.9-0.3,1.3c-0.9,3.3-1.7,6.7-2,10.2c0,0.2,0,0.4,0,0.5c-0.3,1.4-0.5,2.8-0.9,4.2c-0.8,3.4-2,6.7-2.6,10.1
				c0-0.1,0-0.1,0-0.2c0.3-3.2,0.7-7.9,0.7-13.6c0-3-0.1-5.1-0.2-6.8c-0.8,0.9-2.6,0.9-3.1-0.6c-2-5.6,0.7-10.6,1.1-16.2
				c0.1-0.8,0.5-1.2,1-1.5c0-0.1,0-0.1,0-0.2c-0.4-0.2-0.8-0.5-1-1.1c-1.7-5-1.7-10.3-1.1-15.4c0.1-0.7,0.4-1.1,0.9-1.4
				c-0.2-2.3-0.5-4.4-0.7-6.3c0.3-2.6,0.7-5.1,1.4-7.6c1.8-0.3,2.8-0.4,2.9-0.4c0.3,0,1.5,0.3,3.5,1c2.2,3.1,4.1,6.4,5.7,9.8
				c0,0.2,0,0.4,0.1,0.7c0.4,1.7,0.7,3.5,0.8,5.2c0.5,0.3,0.8,0.9,0.9,1.5c0.2,1.8-0.2,3.5-1,5.1c-0.3,0.6-0.8,0.8-1.2,0.9
				c-0.9,3.5-1.7,7-2.3,10.5c0.5,0.4,0.8,1,0.5,1.8c-0.9,2.3-1.2,4.6-1.4,7C152.6,87.7,151.8,88.3,151,88.3z M172.1,65.1
				c-0.1,0.2-0.1,0.4-0.1,0.6c-2,3.7-3.9,7.4-5.8,11.2c0,0-0.1,0.1-0.1,0.1c-0.1,0.2-0.2,0.4-0.2,0.5c-4.4,8.8-8.5,17.7-12.4,26.7
				c0.6-4.3,1.3-8.6,1.9-12.9c0.3-2.2,0.7-4.4,1-6.6c1.6-4.9,3.2-9.6,4.1-14.4c1.7-5.1,3.4-10.2,5-15.3c1.1-1.7,2.3-3.4,3.6-5.1
				c1.7,0.7,3.1,1,4,1h1.8c0.8,0.7,1.5,1.1,2.1,1.3C175.6,56.6,174,60.9,172.1,65.1z M176,61.1c1.2-3.1,2.3-6.2,3.2-9.3
				c0.7,0.9,1.5,1.7,2.4,2.4C179.5,56.3,177.4,58.6,176,61.1C176,61.1,176,61.1,176,61.1z M177.3,64.3c0.1-0.1,0.1-0.2,0.2-0.3
				c0.3-0.6,0.3-1.1,0.1-1.6c1.3-2,3-3.8,4.5-5.5c0.4-0.5,0.9-1,1.4-1.5c0.2,0.1,0.5,0.3,0.7,0.4c1.4,0.7,2.6,1.3,3.6,1.8
				C184,59.4,180.4,61.5,177.3,64.3z M181.8,64.6c-0.1-0.3-0.4-0.6-0.6-0.8c2.7-2,5.8-3.6,8.9-5c1.1,0.5,1.7,0.9,1.9,1
				c0.1,0,0.2,0.1,0.3,0.2c-0.3,0.6-0.5,1.1-0.8,1.7C188.3,62.6,185,63.6,181.8,64.6z M191.3,76.4c0.1-0.1,0.2-0.3,0.3-0.5
				c1.2-4.3,2.9-8.5,4.9-12.5c1.9,1.6,3.3,3,4.2,4.1l3.5-0.9c0,0,0,0,0,0.1c-2.1,1.9-4.2,3.7-6.3,5.6c-0.9-0.6-2.2-0.6-3,0.5
				c-1.5,2-3,4-4.5,5.9C190.8,77.9,191,77.1,191.3,76.4z M186.1,90.6c-1-0.4-1.7-1.8-0.8-3c2.9-3.6,7-6,9.6-9.7
				c0.4-0.6,1.1-0.8,1.7-0.7c0.6-0.8,1.2-1.6,1.8-2.4c0.1-0.2,0.2-0.3,0.3-0.5l6.4-5.7c0.1,0.3,0.1,0.5,0.2,0.8
				c0.1,0.5,0.2,1.6,0.3,3.2c1.5,1.1,2.9,2.6,4.2,4.5c-1.6,1.3-3.2,2.7-4.7,4.1c0,0,0,0,0,0c-10.1,7.9-20.3,15.9-30.4,23.8
				c-0.9,0.7-1.7,1.4-2.6,2C176.9,101.6,181.5,96.2,186.1,90.6z M158.2,123.4c2.8-2.6,5.8-5,8.8-7.4c-0.5-0.7-0.6-1.6,0.1-2.3
				c4.6-4.2,9.8-8,15.6-10.1c6-4.7,11.9-9.3,17.9-14c1.8-0.6,3.6-1.1,5.5-1.1c0,0,0,0,0,0c4.3,0.9,8.6,1.7,13,2.3l0.5,1.8
				c-1.8,1.5-3.2,3.4-4.3,5.5c-7.1,5.3-14.7,9.9-22.7,13.6c0.1,0.3,0.1,0.6,0,1c-1.2,3.9-7.7,5.9-10.6,3.4c0,0-0.1,0-0.1,0
				C174.2,118.8,165.7,120.1,158.2,123.4z M164.9,125.2c2-0.6,4-1.1,6-1.6c5.8-1.5,11.4-3.2,16.9-5.4c0.7-0.3,1.3-0.6,2-0.9
				c-0.1-0.6,0.1-1.2,0.8-1.6c4.8-2.7,10-4.5,13.8-8.6c0.9-1,2.3-0.5,2.8,0.5c0.7-0.1,1.3,0,1.9,0.1c1.1-0.4,2.3-0.8,3.6-0.9
				c1.1-0.1,2.2-0.1,3.3-0.1c3.1,0.4,6.2,0.8,9.3,1.3c0.8,2.8,1.3,4.6,1.3,5.1c0.1,0.6,0.1,1.6,0.1,2.9c1.1,0.5,2,1,2.7,1.5
				C208.1,121.5,186.6,124,164.9,125.2z M240.5,117.9c-0.4-0.6-0.7-1.3-0.8-2.2c-0.3-2.1-0.2-3.3,0-3.6c0.1-0.1,0.2-0.2,0.3-0.3
				l0.5,2.9L240.5,117.9z M258.9,100.4c-0.5,0.2-0.9,0.3-1.4,0.5c0,0.2-0.1,0.5-0.2,0.7c-3.3,7.4-13.1,7.1-20,4.3
				c-0.1,0.3-0.2,0.6-0.4,0.8c-1.3,2.7-5.3,0.3-4-2.3c0.2-0.3,0.3-0.7,0.5-1c-0.2-0.5-0.3-1.1-0.2-1.6c0-0.1,0.1-0.3,0.1-0.4
				c0.2-0.8,0.9-1.4,1.6-1.6c0,0,0.1-0.1,0.1-0.1c0.1-0.1,0.3-0.1,0.4-0.2c1.1-1.8,2.5-3.3,4.7-4c4.6-1.5,9.4,0,13.8,1.8
				c1.2-0.4,2.5-0.9,3.7-1.3C260.5,94.9,261.7,99.4,258.9,100.4z"/>
			<path class="st0" d="M134.1,125.3c-12.6-3-25.3-5.6-38.2-7.7c-1.3-0.2-1.8,1.7-0.5,1.9c0.1,0,0.1,0,0.2,0
				c1.3-0.2,2.6-0.4,3.9-0.9c1.4-0.5,2.3,0.8,2.1,1.9c10.7,1.9,21.4,4.1,31.9,6.6C134.9,127.6,135.4,125.6,134.1,125.3z"/>
		</g>
	</g>
	<polygon class="st0" points="257.5,125.5 236.3,122.7 215,125.1 193.8,121.8 172.6,126.9 151.3,116.7 130.1,118.5 108.8,124.4 
		87.6,120.4 66.4,125.2 45.1,121.4 23.9,123.4 0,119.6 1.1,134 23.9,135.2 45.1,131.9 66.4,133.3 87.6,136.6 108.8,133.5 
		130.1,134.2 151.3,132.5 172.6,137.9 193.8,134.9 215,136.7 236.3,137 257.5,131.1 280.1,132.4 281,120.5 	"/>
</g>
</svg>
