<svg xmlns="http://www.w3.org/2000/svg" viewBox="0 0 47.15 47.25"><defs><style>.cls-1{fill:none;stroke:#baa282;stroke-miterlimit:10;stroke-width:2px;}.cls-2{fill:#baa282;}</style></defs><title>Asset 15</title><g id="Layer_2" data-name="Layer 2"><g id="Layer_1-2" data-name="Layer 1"><path class="cls-1" d="M9,25.71a8,8,0,0,0-8,8c0,6.43,7.3,12.15,7.61,12.39a.67.67,0,0,0,.4.14.7.7,0,0,0,.41-.14c.31-.24,7.6-6,7.6-12.39A8,8,0,0,0,9,25.71Zm0,5.08a2.93,2.93,0,1,1-2.93,2.93A2.93,2.93,0,0,1,9,30.79Z"/><path class="cls-1" d="M38.52,10.87a7.64,7.64,0,0,0-7.63,7.63c0,2.59,1.22,5.36,3.63,8.25a25.38,25.38,0,0,0,3.59,3.52.62.62,0,0,0,.41.14.61.61,0,0,0,.4-.14,25.38,25.38,0,0,0,3.59-3.52c2.41-2.89,3.64-5.66,3.64-8.25A7.64,7.64,0,0,0,38.52,10.87Zm0,4.85a2.78,2.78,0,1,1-2.78,2.78A2.78,2.78,0,0,1,38.52,15.72Z"/><path class="cls-1" d="M11.3,1a7,7,0,0,0-7,7c0,2.37,1.12,4.91,3.33,7.55a23.55,23.55,0,0,0,3.27,3.22.66.66,0,0,0,.81,0A23.3,23.3,0,0,0,15,15.56c2.21-2.64,3.33-5.18,3.33-7.55A7,7,0,0,0,11.3,1Zm0,4.48A2.53,2.53,0,1,1,8.77,8,2.53,2.53,0,0,1,11.3,5.48Z"/><path class="cls-2" d="M36.12,30.15a.65.65,0,0,1-.27,0l-.8-.36a.65.65,0,0,1-.34-.87.67.67,0,0,1,.87-.34l.8.36a.65.65,0,0,1,.34.87A.64.64,0,0,1,36.12,30.15Zm-3.23-1.41a.86.86,0,0,1-.27,0l-.8-.36a.65.65,0,0,1-.34-.87.67.67,0,0,1,.87-.34l.8.35a.66.66,0,0,1,.34.88A.66.66,0,0,1,32.89,28.74Zm-3.23-1.41a.66.66,0,0,1-.27-.06l-.8-.35a.65.65,0,0,1-.34-.87.66.66,0,0,1,.87-.34l.8.35a.66.66,0,0,1-.26,1.27Zm-3.23-1.41a.66.66,0,0,1-.27-.06l-.8-.35a.66.66,0,0,1,.53-1.21l.8.35a.66.66,0,0,1-.26,1.27ZM23.2,24.51a.66.66,0,0,1-.27-.06l-.8-.35a.66.66,0,0,1,.53-1.21l.8.35a.66.66,0,0,1-.26,1.27ZM20,23.09A.65.65,0,0,1,19.7,23l-.8-.35a.67.67,0,0,1,.53-1.22l.8.36a.65.65,0,0,1,.34.87A.64.64,0,0,1,20,23.09Zm-3.23-1.41a.86.86,0,0,1-.27-.05l-.8-.36a.65.65,0,0,1-.34-.87.67.67,0,0,1,.87-.34l.8.36a.65.65,0,0,1,.34.87A.66.66,0,0,1,16.74,21.68Zm-3.23-1.41a.66.66,0,0,1-.27-.06l-.8-.35A.65.65,0,0,1,12.1,19a.66.66,0,0,1,.87-.34l.8.35a.66.66,0,0,1-.26,1.27Z"/><path class="cls-2" d="M11.68,45.8a.66.66,0,0,1-.31-1.25l.78-.41a.66.66,0,1,1,.62,1.17l-.77.41A.72.72,0,0,1,11.68,45.8Zm3.12-1.66a.67.67,0,0,1-.59-.35.66.66,0,0,1,.27-.89l.78-.42a.67.67,0,0,1,.9.27.66.66,0,0,1-.28.9l-.77.41A.6.6,0,0,1,14.8,44.14Zm3.11-1.66a.66.66,0,0,1-.32-1.24l.78-.42a.67.67,0,0,1,.9.28A.65.65,0,0,1,19,42l-.77.41A.6.6,0,0,1,17.91,42.48ZM21,40.82a.66.66,0,0,1-.31-1.24l.77-.41a.66.66,0,1,1,.63,1.16l-.78.42A.7.7,0,0,1,21,40.82Zm3.11-1.65a.67.67,0,0,1-.59-.35.66.66,0,0,1,.28-.9l.77-.41a.67.67,0,0,1,.9.27.66.66,0,0,1-.27.89l-.78.42A.71.71,0,0,1,24.13,39.17Zm3.11-1.66a.66.66,0,0,1-.31-1.25l.77-.41A.66.66,0,1,1,28.33,37l-.78.41A.71.71,0,0,1,27.24,37.51Zm3.11-1.66A.66.66,0,0,1,30,34.61l.78-.42a.66.66,0,0,1,.89.27.67.67,0,0,1-.27.9l-.78.41A.71.71,0,0,1,30.35,35.85Zm3.11-1.66a.66.66,0,0,1-.58-.35.65.65,0,0,1,.27-.89l.78-.42a.66.66,0,0,1,.62,1.17l-.78.41A.6.6,0,0,1,33.46,34.19Zm3.11-1.66a.64.64,0,0,1-.58-.35.66.66,0,0,1,.27-.89l.78-.41a.65.65,0,0,1,.89.27.66.66,0,0,1-.27.89l-.78.42A.67.67,0,0,1,36.57,32.53Z"/></g></g></svg>