<svg xmlns="http://www.w3.org/2000/svg" viewBox="0 0 43 43"><defs><style>.cls-1{fill:#baa282;}</style></defs><title>Asset 7</title><g id="Layer_2" data-name="Layer 2"><g id="Layer_1-2" data-name="Layer 1"><path class="cls-1" d="M13.15,1.7a21.32,21.32,0,0,1,16.7,0A21.12,21.12,0,0,1,41.3,13.15a21.31,21.31,0,0,1,0,16.7A21.12,21.12,0,0,1,29.85,41.3a21.31,21.31,0,0,1-16.7,0A21.12,21.12,0,0,1,1.7,29.85a21.31,21.31,0,0,1,0-16.7A21.12,21.12,0,0,1,13.15,1.7ZM5.23,30.16l4.65-4.66a12.29,12.29,0,0,1,0-8L5.23,12.84a18.45,18.45,0,0,0,0,17.32ZM15,28a8.88,8.88,0,0,0,6.51,2.7,9.22,9.22,0,0,0,9.21-9.21,9.22,9.22,0,0,0-9.21-9.21,9.22,9.22,0,0,0-9.21,9.21A8.88,8.88,0,0,0,15,28ZM21.5,3.07a18.34,18.34,0,0,0-8.66,2.16l4.66,4.65a12.28,12.28,0,0,1,8,0l4.66-4.65A18.34,18.34,0,0,0,21.5,3.07Zm0,36.86a18.34,18.34,0,0,0,8.66-2.16l-4.66-4.65a12.28,12.28,0,0,1-8,0l-4.66,4.65A18.34,18.34,0,0,0,21.5,39.93ZM33.11,25.51l4.65,4.66a18.45,18.45,0,0,0,0-17.32l-4.65,4.66a12.29,12.29,0,0,1,0,8Z"/></g></g></svg>