<svg xmlns="http://www.w3.org/2000/svg" viewBox="0 0 51.79 48.34"><defs><style>.cls-1{fill:#baa282;}</style></defs><title>Asset 2</title><g id="Layer_2" data-name="Layer 2"><g id="Layer_1-2" data-name="Layer 1"><path class="cls-1" d="M16,24.17a9.3,9.3,0,0,0-7.15,3.45H5.23a6.18,6.18,0,0,1-3.72-1.09A3.69,3.69,0,0,1,0,23.33q0-9.52,3.34-9.52a5.13,5.13,0,0,1,1.17.57,17.75,17.75,0,0,0,2.63,1.15,9.45,9.45,0,0,0,3.21.58,10.84,10.84,0,0,0,3.59-.62,13.45,13.45,0,0,0-.13,1.78A11.88,11.88,0,0,0,16,24.17ZM15.24,2a6.65,6.65,0,0,1,2,4.88,6.65,6.65,0,0,1-2,4.88,6.65,6.65,0,0,1-4.88,2,6.65,6.65,0,0,1-4.88-2,6.65,6.65,0,0,1-2-4.88A6.65,6.65,0,0,1,5.48,2a6.65,6.65,0,0,1,4.88-2A6.65,6.65,0,0,1,15.24,2ZM44.88,41.35a6.72,6.72,0,0,1-2,5.11,7.28,7.28,0,0,1-5.23,1.87H14.11a7.28,7.28,0,0,1-5.23-1.87,6.72,6.72,0,0,1-2-5.11q0-1.43.09-2.79a27.46,27.46,0,0,1,.38-2.94,22.92,22.92,0,0,1,.71-2.93,13.9,13.9,0,0,1,1.16-2.63,9.5,9.5,0,0,1,1.67-2.19,7.05,7.05,0,0,1,2.31-1.44,8.09,8.09,0,0,1,3-.54,3.17,3.17,0,0,1,1.16.58l2,1.29a11.81,11.81,0,0,0,2.89,1.29,11.73,11.73,0,0,0,7.28,0,11.82,11.82,0,0,0,2.89-1.29l2-1.29a3.17,3.17,0,0,1,1.16-.58,8.1,8.1,0,0,1,3,.54,7.05,7.05,0,0,1,2.31,1.44,9.5,9.5,0,0,1,1.67,2.19,13.9,13.9,0,0,1,1.16,2.63,23.09,23.09,0,0,1,.71,2.93,27.46,27.46,0,0,1,.38,2.94Q44.88,39.92,44.88,41.35ZM33.22,9.94a10,10,0,0,1,3,7.32,10,10,0,0,1-3,7.32,10,10,0,0,1-7.32,3,10,10,0,0,1-7.32-3,10,10,0,0,1-3-7.32,10,10,0,0,1,3-7.32,10,10,0,0,1,7.32-3A10,10,0,0,1,33.22,9.94ZM46.31,2a6.65,6.65,0,0,1,2,4.88,6.65,6.65,0,0,1-2,4.88,6.9,6.9,0,0,1-9.76,0,6.65,6.65,0,0,1-2-4.88,6.65,6.65,0,0,1,2-4.88,6.9,6.9,0,0,1,9.76,0Zm5.48,21.31a3.7,3.7,0,0,1-1.51,3.2,6.18,6.18,0,0,1-3.72,1.09H42.94a9.3,9.3,0,0,0-7.15-3.45A11.88,11.88,0,0,0,38,17.26a13.45,13.45,0,0,0-.13-1.78,10.84,10.84,0,0,0,3.59.62,9.45,9.45,0,0,0,3.21-.58,17.69,17.69,0,0,0,2.63-1.15,5.13,5.13,0,0,1,1.17-.57Q51.79,13.81,51.79,23.33Z"/></g></g></svg>