<svg xmlns="http://www.w3.org/2000/svg" viewBox="0 0 51.21 51.21"><defs><style>.cls-1{fill:#baa282;}</style></defs><title>Asset 9</title><g id="Layer_2" data-name="Layer 2"><g id="Layer_1-2" data-name="Layer 1"><path class="cls-1" d="M49.7,24.53l-23-23A5.09,5.09,0,0,0,23.05,0H5.12A5.13,5.13,0,0,0,0,5.12V23.05a5.1,5.1,0,0,0,1.51,3.63l23,23a5.09,5.09,0,0,0,3.61,1.48,5,5,0,0,0,3.61-1.51L49.7,31.78a5,5,0,0,0,1.51-3.61A5.18,5.18,0,0,0,49.7,24.53ZM9,12.8A3.84,3.84,0,1,1,12.8,9,3.83,3.83,0,0,1,9,12.8ZM34.89,24.2l.2.83-3.35,1.44-.3-1.13a4.54,4.54,0,0,0-1.22-2.21,1.69,1.69,0,0,0-1.13-.61.92.92,0,0,0-.61.25c-.34.34-.51.71.34,2.84.79,2,1.42,4.51-.79,6.64a4.79,4.79,0,0,1-3.36,1.37,5.44,5.44,0,0,1-2.61-.7l-1.89,1.83-2.41-2.49,1.74-1.69a7.3,7.3,0,0,1-1.37-3.05L18,26.77l3.36-1.52.23,1.26A5.32,5.32,0,0,0,23,29.1a2,2,0,0,0,1.38.7,1.1,1.1,0,0,0,.78-.32c.35-.35.67-.88-.08-2.73-.91-2.18-1.57-4.69.45-6.66a4.52,4.52,0,0,1,3.2-1.31,5.15,5.15,0,0,1,2.51.68L33,17.68l2.4,2.47-1.69,1.63A6.86,6.86,0,0,1,34.89,24.2Z"/></g></g></svg>