<svg xmlns="http://www.w3.org/2000/svg" viewBox="0 0 64 49.78"><defs><style>.cls-1{fill:#baa282;}</style></defs><title>Asset 11</title><g id="Layer_2" data-name="Layer 2"><g id="Layer_1-2" data-name="Layer 1"><path class="cls-1" d="M59,22.61v.73A12.18,12.18,0,0,1,46.81,35.51H29.14V37A5.81,5.81,0,0,0,35,42.84H49.72l6.69,6.58a1.28,1.28,0,0,0,.88.36,1.15,1.15,0,0,0,.48-.1,1.24,1.24,0,0,0,.77-1.15v-5.7A5.82,5.82,0,0,0,64,37V28.36A5.8,5.8,0,0,0,59,22.61Z"/><path class="cls-1" d="M55.62,23.1V9.27A9.27,9.27,0,0,0,46.35,0H9.27A9.27,9.27,0,0,0,0,9.27V23.1a9.27,9.27,0,0,0,8.71,9.25v9.1a2,2,0,0,0,1.23,1.84,2.07,2.07,0,0,0,.77.15,2,2,0,0,0,1.4-.57l10.67-10.5H46.35A9.27,9.27,0,0,0,55.62,23.1Z"/></g></g></svg>