<svg xmlns="http://www.w3.org/2000/svg" viewBox="0 0 47.06 47.64"><defs><style>.cls-1{fill:none;stroke:#baa282;stroke-miterlimit:10;stroke-width:2px;}</style></defs><title>Asset 14</title><g id="Layer_2" data-name="Layer 2"><g id="Layer_1-2" data-name="Layer 1"><path class="cls-1" d="M26.56,21.48a3.2,3.2,0,0,1-.63-2.66l.36-2.19a4.66,4.66,0,0,0-.82-3l-.64-.78C8.86,19.46,1.37,31.11,1.37,31.11c-.76,1.13-.31,1.76,1,1.41L4.53,32c1.32-.35,1.81.31,1.09,1.47L2.67,38.18c-.71,1.15-.2,1.9,1.14,1.66l2.24-.4a1.82,1.82,0,0,1,2.24,2L8,45.5c-.1,1.36.41,1.53,1.14.38,0,0,8.53-14.16,18.16-23.82a2.82,2.82,0,0,1-.71-.58Z"/><path class="cls-1" d="M45.49,9.67c1-1,.68-2-.64-2.36l-2.14-.55A6.25,6.25,0,0,1,39.2,3.93l-1-2A1.47,1.47,0,0,0,37,1a1.5,1.5,0,0,0-1.22.83L34.57,3.69A6.19,6.19,0,0,1,30.8,6.15l-2.2.34c-1.34.21-1.73,1.23-.87,2.28l1.41,1.71a6.22,6.22,0,0,1,1.18,4.35L30,17c-.17,1.05.31,1.7,1.13,1.7a2.12,2.12,0,0,0,.77-.16l2.06-.82a5.45,5.45,0,0,1,1.92-.31,6,6,0,0,1,2.58.54l2,1a2,2,0,0,0,.9.25c.74,0,1.21-.59,1.15-1.59l-.13-2.21a6.18,6.18,0,0,1,1.6-4.21Z"/></g></g></svg>