<svg xmlns="http://www.w3.org/2000/svg" viewBox="0 0 42.83 42.7"><defs><style>.cls-1{fill:#baa282;}</style></defs><title>Asset 16</title><g id="Layer_2" data-name="Layer 2"><g id="Layer_1-2" data-name="Layer 1"><path class="cls-1" d="M15.59,18.32a2,2,0,1,0-2,2A2,2,0,0,0,15.59,18.32Z"/><path class="cls-1" d="M2.18,26.51a2.19,2.19,0,0,0,.41.14l1.65.44c.55.14,1.3.4,1.8,0,1.47-1.14-2.14-1.9-2.76-2,0,0,.6-1.74.66-1.9a6.79,6.79,0,0,1,.93-1.55,11.82,11.82,0,0,0,2.06-3.42,6.55,6.55,0,0,0,.19-2.75A4.41,4.41,0,0,1,7.56,13l.36-.9c.33-.85.6-1.49.76-1.82A15.55,15.55,0,0,1,23.84,1.57a14.75,14.75,0,0,1,2.1.3L26.26.38A17.84,17.84,0,0,0,24,.05,17.08,17.08,0,0,0,7.32,9.56c-.18.37-.47,1.06-.83,2l-.38,1a6.93,6.93,0,0,0-.64,3.28c0,.23,0,.45,0,.67a8.34,8.34,0,0,1-1.14,3.71l-.42.64c-.3.46-.53,1-.85,1.42s-.71,1-1,1.54a3.56,3.56,0,0,0-.52,1.75A1,1,0,0,0,2.18,26.51Z"/><path class="cls-1" d="M11.65,38h3v3.8a.76.76,0,0,0,.76.76h19a.76.76,0,0,0,.76-.76V40.62A48.82,48.82,0,0,1,38.67,23.2a15.29,15.29,0,0,0,.55-1.7l-1.47-.39a14.7,14.7,0,0,1-.5,1.55,50.42,50.42,0,0,0-3.54,18v.46H16.21V38h3a3.82,3.82,0,0,0,3.66-2.76l2.41-8.45-1.46-.41-2.42,8.44a2.29,2.29,0,0,1-2.19,1.66H11.65Z"/><path class="cls-1" d="M.63,42.7H8.46A2.19,2.19,0,0,0,10,38.94a2.2,2.2,0,0,0,0-3.1l0,0a2.2,2.2,0,0,0,.45-2.51H11a2.2,2.2,0,1,0,0-4.39H3.13A3.13,3.13,0,0,0,0,32v10A.63.63,0,0,0,.63,42.7ZM1.25,32a1.88,1.88,0,0,1,1.88-1.88H11A.94.94,0,0,1,11,32H5A.63.63,0,1,0,5,33.3H8.46a.94.94,0,0,1,0,1.88H5a.63.63,0,1,0,0,1.25H8.46a.94.94,0,1,1,0,1.88H5a.63.63,0,0,0,0,1.26H8.46a.94.94,0,1,1,0,1.88H1.25Z"/><path class="cls-1" d="M22.2,5.71a4.87,4.87,0,0,0,.59,5.7,4.89,4.89,0,0,0-.59,5.71,5,5,0,0,0,5.29,2.34,5,5,0,0,0,9.39,0,5,5,0,0,0,5.29-2.34,4.89,4.89,0,0,0-.59-5.71,4.87,4.87,0,0,0,.59-5.7,5,5,0,0,0-5.29-2.35,5,5,0,0,0-9.39,0A5,5,0,0,0,22.2,5.71ZM27.76,5a.76.76,0,0,0,1-.42.58.58,0,0,0,0-.18,3.43,3.43,0,0,1,6.78,0,.77.77,0,0,0,.87.65L36.61,5a3.47,3.47,0,0,1,4.25,1.45A3.37,3.37,0,0,1,40,10.81a.75.75,0,0,0-.13,1.06A.58.58,0,0,0,40,12a3.37,3.37,0,0,1,.86,4.35,3.45,3.45,0,0,1-4.25,1.44.77.77,0,0,0-1,.43.84.84,0,0,0,0,.17,3.42,3.42,0,0,1-6.77,0,.77.77,0,0,0-.76-.65.92.92,0,0,0-.28.05,3.45,3.45,0,0,1-4.25-1.44A3.37,3.37,0,0,1,24.36,12,.75.75,0,0,0,24.5,11a.58.58,0,0,0-.14-.13,3.36,3.36,0,0,1-.85-4.35A3.47,3.47,0,0,1,27.76,5Z"/><rect class="cls-1" x="31.42" y="10.65" width="1.52" height="1.52"/><rect class="cls-1" x="28.38" y="10.65" width="1.52" height="1.52"/><rect class="cls-1" x="34.47" y="10.65" width="1.52" height="1.52"/></g></g></svg>