<svg xmlns="http://www.w3.org/2000/svg" viewBox="0 0 49.15 39.93"><defs><style>.cls-1{fill:#baa282;}</style></defs><title>Asset 6</title><g id="Layer_2" data-name="Layer 2"><g id="Layer_1-2" data-name="Layer 1"><path class="cls-1" d="M39.62.62l9.21,12.29a1.53,1.53,0,0,1-.1,2l-23,24.57a1.57,1.57,0,0,1-2.26,0L.41,14.88a1.53,1.53,0,0,1-.1-2L9.53.62A1.4,1.4,0,0,1,10.75,0H38.39A1.4,1.4,0,0,1,39.62.62ZM12.91,12.29l4.9-9.21H11.52L4.61,12.29ZM5.09,15.36,20,31.31l-7.2-16ZM24.57,33.88l8.38-18.52H16.2Zm-8.18-21.6H32.76l-4.9-9.21H21.29Zm12.72,19,14.95-16H36.31Zm7.13-19h8.3L37.63,3.07H31.34Z"/></g></g></svg>