<svg xmlns="http://www.w3.org/2000/svg" viewBox="0 0 25.17 48.34"><defs><style>.cls-1{fill:#baa282;}</style></defs><title>Asset 3</title><g id="Layer_2" data-name="Layer 2"><g id="Layer_1-2" data-name="Layer 1"><path class="cls-1" d="M25.17,32a10.26,10.26,0,0,1-2.68,7.11,11.59,11.59,0,0,1-7,3.68v4.72a.83.83,0,0,1-.86.86H11a.88.88,0,0,1-.86-.86V42.75a17,17,0,0,1-3.44-.84A18,18,0,0,1,4,40.72a18.08,18.08,0,0,1-2-1.29,15.35,15.35,0,0,1-1.25-1,6.44,6.44,0,0,1-.47-.49.82.82,0,0,1-.05-1.11L3,33.18a.84.84,0,0,1,.62-.32.67.67,0,0,1,.65.24l.05.05a14.08,14.08,0,0,0,6.55,3.37,9.42,9.42,0,0,0,2,.22,6.54,6.54,0,0,0,3.84-1.16,3.78,3.78,0,0,0,1.66-3.29,2.74,2.74,0,0,0-.4-1.43,5.06,5.06,0,0,0-.9-1.13,7.39,7.39,0,0,0-1.58-1q-1.08-.55-1.78-.86T11.52,27L9.86,26.3q-.61-.24-1.66-.71t-1.69-.84q-.63-.36-1.52-1a9.46,9.46,0,0,1-1.44-1.15,16.46,16.46,0,0,1-1.17-1.32,6.57,6.57,0,0,1-1-1.56A10.74,10.74,0,0,1,.85,18a9.34,9.34,0,0,1-.23-2.1A9.22,9.22,0,0,1,3.26,9.33a12.34,12.34,0,0,1,6.88-3.61V.86A.83.83,0,0,1,10.4.26.83.83,0,0,1,11,0h3.64a.83.83,0,0,1,.86.86V5.61a15,15,0,0,1,3,.62,17.34,17.34,0,0,1,2.35.9,12.94,12.94,0,0,1,1.71,1q.81.57,1.05.78l.4.38a.78.78,0,0,1,.14,1L22,14.27a.73.73,0,0,1-.62.43.86.86,0,0,1-.73-.19l-.39-.32q-.31-.24-1.05-.71a14.16,14.16,0,0,0-1.58-.86,12.12,12.12,0,0,0-2-.7,9,9,0,0,0-2.31-.31,7,7,0,0,0-4.18,1.16A3.63,3.63,0,0,0,7.7,17a3,3,0,0,0,.79,1.12,11.87,11.87,0,0,0,1.07.89,9.47,9.47,0,0,0,1.51.84q1,.47,1.63.73l1.89.74q1.43.54,2.18.85t2,.94a16.37,16.37,0,0,1,2,1.15,17.28,17.28,0,0,1,1.67,1.35A7,7,0,0,1,24,27.36a9.72,9.72,0,0,1,.85,2.06A8.92,8.92,0,0,1,25.17,32Z"/></g></g></svg>