<svg xmlns="http://www.w3.org/2000/svg" viewBox="0 0 64 64"><defs><style>.cls-1{fill:#baa282;}</style></defs><title>Asset 12</title><g id="Layer_2" data-name="Layer 2"><g id="Layer_1-2" data-name="Layer 1"><path class="cls-1" d="M0,29c.33-.12.27-.45.33-.69.67-3,1.48-6.06,2.29-9.08A7.24,7.24,0,0,1,8.73,14a2.53,2.53,0,0,1,2.52,1c.28.4.45.1.62-.08a6.19,6.19,0,0,1,2.77-1.75,6.74,6.74,0,0,1,6.61,1.79,10.07,10.07,0,0,1,1.84,2.27c1.3,2.11,2.61,4.21,3.89,6.33a1.07,1.07,0,0,0,1,.59c1.45,0,2.91.08,4.37.11,1,0,1,0,1-1-.11-1.6-.2-3.2-.3-4.8v-.18c0-.7.37-1.13,1-1.14a1,1,0,0,1,1,1c.1,1.41.18,2.82.27,4.23,0,.48.08,1,.09,1.44s.17.51.52.56a3.54,3.54,0,0,1,.85.22,2.42,2.42,0,0,1,1.64,2.28,2.48,2.48,0,0,1-1.71,2.25c-.93.34-.95.34-.89,1.33q.47,7.63.94,15.27.28,4.58.55,9.16c.06.93.08,1,1,.73l7.88-1.95a4.3,4.3,0,0,1,1.6-.1c2.25.3,4.5.56,6.75.85a1.89,1.89,0,0,0,.91-.13c2-.7,4.1-1.39,6.14-2.11.82-.29,1.62-.66,2.46-.06,0,3.81,0,7.62,0,11.43,0,.38-.08.45-.45.45H.45C.08,64,0,63.93,0,63.55a11.61,11.61,0,0,0,0-1.18,5,5,0,0,1,1.58-.48c.66-.07,1.31-.19,2-.28.31,0,.43-.18.33-.5a3.4,3.4,0,0,1-.12-1.49l.51-4.09Q5.64,44.78,7,34c.06-.54-.08-.8-.64-.9-1.45-.27-2.89-.6-4.34-.9a2.54,2.54,0,0,1-1.71-1C.24,31.09.17,31,0,31ZM35.25,54.82c-.13-2.16-.26-4.45-.4-6.73q-.56-8.88-1.1-17.76c0-.84,0-.85-.92-.79-2.27.16-4.53.3-6.79.47a2.75,2.75,0,0,1-2.5-1.12c-.58-.74-1.19-1.45-1.79-2.17-.12-.13-.21-.37-.41-.34s-.21.34-.25.53c-.47,2.18-.8,4.38-1.07,6.59a1.06,1.06,0,0,0,.34.94c2.26,2.37,4.49,4.75,6.75,7.11a3.47,3.47,0,0,1,1,2l.51,4.4c.35,3,.69,5.91,1.05,8.87.1.85.12.85,1,.65l3.27-.81C35.31,56.35,35.31,56.35,35.25,54.82ZM9.72,60.74l.19,0,14.09-2c.4,0,.41-.24.34-.55q-1.39-5.94-2.76-11.86a1.54,1.54,0,0,0-.54-.89c-1.86-1.62-3.72-3.27-5.59-4.89-.76-.67-1.29-.5-1.53.5q-1.51,6.28-3,12.57c-.52,2.14-1,4.29-1.55,6.43C9.27,60.4,9.14,60.76,9.72,60.74Z"/><path class="cls-1" d="M21.88,0c.09.3.39.28.61.36a5.74,5.74,0,1,1-4.07,0C18.64.3,18.94.32,19,0Z"/></g></g></svg>