<svg xmlns="http://www.w3.org/2000/svg" viewBox="0 0 64 55.1"><defs><style>.cls-1{fill:#baa282;}</style></defs><title>Asset 10</title><g id="Layer_2" data-name="Layer 2"><g id="Layer_1-2" data-name="Layer 1"><rect class="cls-1" x="22.81" width="18.39" height="6.56" rx="1.53" ry="1.53"/><path class="cls-1" d="M55.34,3.35H41.19V8.72a2,2,0,0,1-2,2H24.77a2,2,0,0,1-2-2V3.35H8.67A8.67,8.67,0,0,0,0,12V46.44A8.66,8.66,0,0,0,8.67,55.1H55.34A8.66,8.66,0,0,0,64,46.44V12A8.67,8.67,0,0,0,55.34,3.35ZM37.25,41.67a1.9,1.9,0,0,1-1.9,1.9H15.22a1.9,1.9,0,0,1-1.9-1.9V40a6,6,0,0,1,6-6h1.56a1.46,1.46,0,0,0,1.46-1.47,1.11,1.11,0,0,0-.33-.79,10.37,10.37,0,0,1-2.2-3.29.53.53,0,0,1-.3.09c-.87,0-1.9-1.93-1.9-3.25s.12-2.39,1-2.39a1,1,0,0,1,.23,0c.06-3.57.73-8,6.42-8,5.45,0,6.35,4.46,6.41,8a1.26,1.26,0,0,1,.33-.05c.87,0,1,1.07,1,2.39s-1,3.25-1.9,3.25a.6.6,0,0,1-.37-.15,10.27,10.27,0,0,1-2.22,3.34,1.14,1.14,0,0,0-.33.8A1.46,1.46,0,0,0,29.66,34h1.56a6,6,0,0,1,6,6Zm-2.68-15h14.7a1.41,1.41,0,0,1,1.41,1.41v2.24a1.41,1.41,0,0,1-1.41,1.41H31.7V30.36a2.53,2.53,0,0,0,.13-.22C33.19,29.72,34.18,28.15,34.57,26.64ZM50.68,39.51a1.41,1.41,0,0,1-1.41,1.41H39V40a7.68,7.68,0,0,0-1.2-4.13H49.27a1.41,1.41,0,0,1,1.41,1.41Zm0-18.44a1.41,1.41,0,0,1-1.41,1.41h-15a2.44,2.44,0,0,0-.85-1,12.72,12.72,0,0,0-1-4H49.27a1.41,1.41,0,0,1,1.41,1.41Z"/></g></g></svg>