<svg xmlns="http://www.w3.org/2000/svg" viewBox="0 0 37.75 48.74"><defs><style>.cls-1{fill:none;stroke:#baa282;stroke-miterlimit:10;stroke-width:2px;}</style></defs><title>Asset 13</title><g id="Layer_2" data-name="Layer 2"><g id="Layer_1-2" data-name="Layer 1"><path class="cls-1" d="M5.86,28.32H2a1,1,0,0,0-1,1V46.77a1,1,0,0,0,1,1H5.86a1,1,0,0,0,1-1V29.29A1,1,0,0,0,5.86,28.32Z"/><path class="cls-1" d="M20.84,28.32l1-2.79c.71-1.93.25-4.87-1.71-5.92a3.35,3.35,0,0,0-2.24-.33,1.59,1.59,0,0,0-1,.74,3.8,3.8,0,0,0-.31,1.38A6.06,6.06,0,0,1,15,24.55C13.45,26,8.77,30.26,8.77,30.26V45.8H25a2.94,2.94,0,0,0,2.54-4.35,2.94,2.94,0,0,0,1-3.88,2.94,2.94,0,0,0,1-3.88,3,3,0,0,0-1.11-5.37C28.16,28.29,20.84,28.32,20.84,28.32Z"/><path class="cls-1" d="M35.6,13l-7.49-2.31A1.65,1.65,0,0,1,27,9.61L24.69,2.14a1.63,1.63,0,0,0-2.89-.45L17.3,8.1A1.61,1.61,0,0,1,16,8.79L8.12,8.71A1.63,1.63,0,0,0,6.8,11.32l4.7,6.26a1.64,1.64,0,0,1,.24,1.5L9.25,26.51a1.63,1.63,0,0,0,1.32,2.12c1.48-1.36,3.49-3.21,4.39-4.08a6.06,6.06,0,0,0,1.65-3.15A3.8,3.8,0,0,1,16.92,20a1.59,1.59,0,0,1,1-.74,3.35,3.35,0,0,1,2.24.33c2,1.05,2.42,4,1.71,5.92l-.56,1.53L23,28.31c2.17,0,5.23,0,5.33,0a3.24,3.24,0,0,1,.78.25L29,21.76a1.65,1.65,0,0,1,.69-1.35l6.38-4.54A1.62,1.62,0,0,0,35.6,13Z"/></g></g></svg>