<svg xmlns="http://www.w3.org/2000/svg" viewBox="0 0 40.97 42.98"><defs><style>.cls-1{fill:#baa282;}</style></defs><title>Asset 4</title><g id="Layer_2" data-name="Layer 2"><g id="Layer_1-2" data-name="Layer 1"><path class="cls-1" d="M40.93,28.12a.66.66,0,0,1-.48.48l-7,2.3v7.34a.75.75,0,0,1-.31.62.7.7,0,0,1-.7.1l-7-2.26-4.32,6a.78.78,0,0,1-1.25,0l-4.32-6L8.54,39a.7.7,0,0,1-.7-.1.75.75,0,0,1-.31-.62V30.91l-7-2.3A.66.66,0,0,1,0,28.12a.75.75,0,0,1,.1-.7l4.32-6-4.32-6a.76.76,0,0,1-.1-.7.66.66,0,0,1,.48-.48l7-2.3V4.7a.75.75,0,0,1,.31-.62.7.7,0,0,1,.7-.1l7,2.26,4.32-6a.82.82,0,0,1,1.25,0l4.32,6,7-2.26a.7.7,0,0,1,.7.1.75.75,0,0,1,.31.62V12l7,2.3a.67.67,0,0,1,.48.48.76.76,0,0,1-.1.7l-4.32,6,4.32,6A.75.75,0,0,1,40.93,28.12Zm-7.71-1.28a13.72,13.72,0,0,0,0-10.73,13.63,13.63,0,0,0-7.37-7.37,13.72,13.72,0,0,0-10.73,0,13.63,13.63,0,0,0-7.37,7.37,13.72,13.72,0,0,0,0,10.73,13.63,13.63,0,0,0,7.37,7.37,13.72,13.72,0,0,0,10.73,0,13.63,13.63,0,0,0,7.37-7.37Z"/></g></g></svg>