<?xml version="1.0" encoding="utf-8"?>
<!-- Generator: Adobe Illustrator 22.1.0, SVG Export Plug-In . SVG Version: 6.00 Build 0)  -->
<svg version="1.1" id="Layer_1" xmlns="http://www.w3.org/2000/svg" xmlns:xlink="http://www.w3.org/1999/xlink" x="0px" y="0px"
	 viewBox="0 0 699.4 218.8" style="enable-background:new 0 0 699.4 218.8;" xml:space="preserve">
<style type="text/css">
	.st0{fill:#BAA282;}
	.st1{fill:#D6C7B4;}
</style>
<title>Asset 2</title>
<g>
	<g>
		<path class="st0" d="M656.2,162c-0.8,0-3.1,1.6-6.9,4.7l-7.6,6.9c-0.2,0.2-1.5,0.9-3.9,2.2c-3,1.5-5.9,2.2-8.9,2.2
			c-3.5,0-6.7-0.8-9.6-2.5c0.2-1.3,0.3-2.4,0.3-3.2c0-0.7-0.1-1.3-0.3-1.7l-1.7-2.9c-0.9-1.8-1.5-3.5-1.7-5.3
			c-0.1-1.7-0.2-4.4-0.4-8.2v-0.3l0.4-5.6c0-1.8-0.7-2.6-2.1-2.6c-0.9,0-2,0.4-3.3,1.3c-0.8-1.6-1.3-2.9-1.3-4
			c0-1.4,0.8-2.1,2.5-2.1c0.9,0,2.1,0.2,3.5,0.6l0.3-17.4c-1.4-0.4-3.1-0.6-5.1-0.8c-0.4-1.2-0.6-2.2-0.6-3.1c0-2.2,1.7-3.6,5.1-4.2
			c0.1-2.9,0.1-5,0.1-6.5c0-1.2-0.1-2.5-0.2-3.9c2.2-3.4,14.7-3.8,11.2-10.4c-0.1-0.2-0.3-0.4-0.4-0.6c1-1,1-2.6,0.2-3.7
			c1.5-1.4,1.2-4.3-1-5c-0.5-0.5-1.1-0.8-2-0.9c0,0-0.1,0-0.1,0c-0.2-0.1-0.5-0.1-0.7-0.1c-0.5,0-1.1,0-1.6,0
			c-5.2-0.3-10.3-0.7-15.5-0.9c-1.7-0.1-2.7,1-2.8,2.3c-0.3,0.7-0.4,1.6-0.1,2.3c-0.1,0.3-0.1,0.6-0.1,1c-2.5,1-4,2.8-3.7,5.8
			c0.2,1.7,1.1,2.8,2.3,3.4c-0.2,0.4-0.2,0.8,0.1,1.2c0.1,0.2,0.3,0.2,0.4,0.2c-0.2,1.3-0.2,2.6,0.3,3.7c0,0.1,0.1,0.2,0.1,0.4
			c-0.1,0.2-0.2,0.3-0.4,0.5c-0.4-0.9-0.8-1.8-1-2.8c-0.1-0.6-0.9-0.4-1,0.1c-0.1,1.2,0.1,2.7,0.6,4.2c-0.8,0.5-1.7,0.9-2.3,1.7
			c-0.1,0.1-0.2,0.1-0.2,0.2c-0.1,0.4-0.1,0.8-0.2,1.1c-0.2,0.8-0.4,1.6-0.4,2.5c0,0.1,0.1,1.8,0.3,1.8l4,1c0.2,1,0.3,1.9,0.3,2.6
			c0,1.3-1.1,2.6-3.3,4c0.1,11.9,0.4,20,0.8,24.3c0,2.5,0.3,4.6,0.8,6.4c-1.6,1.6-2.4,3.9-2.5,6.9c0,4.7-0.1,7.8-0.3,9.3
			c-0.2,1.9-0.3,3.2-0.3,4c0,0.5,0.5,2.2,1.5,5.3c0.6,2.3,1,3.5,1.1,3.6c0.9,1.6,2.1,3.1,3.6,4.6c3.3,3.1,6.2,4.7,8.6,4.7
			c0.9,0,2-0.1,3.3-0.3l1.5-3.5l2.5,0.7c1,1.7,1.9,2.5,2.8,2.5c0.5,0,2.3-0.9,5.4-2.6l4.7-1.5c7.7-2.6,13.4-4.9,17.2-6.8
			c5-1.6,7.8-2.8,8.5-3.5c0.6-0.8,1.3-3.6,1.9-8.4c0.1-0.6,0.3-1.9,0.6-3.6C658.2,162.4,657.1,162,656.2,162z"/>
		<g>
			<path class="st0" d="M610.7,51.2c0,0.2-0.1,0.3-0.2,0.4c0.1,0.1,0.2,0.1,0.2,0.2c0,0,0,0,0,0.1c0.3,0.5,0.2,1.2-0.1,1.7
				c0,0.1,0,0.1,0,0.2c0.3-0.2,0.6-0.3,0.9-0.3c0,0.1-0.1,0.2-0.1,0.4c-0.1,0.4-0.5,0.7-0.8,0.8c0.3,1.3,0.7,2.7,1.1,4
				c0.3-1.5,0.5-3,0.8-4.6c-0.1-0.2-0.1-0.3-0.2-0.5c0.4,0.2,0.8,0.6,0.7,1.3c-0.3,2.1-0.7,4.2-0.8,6.3c0.3,0.8,0.4,1.8,0.4,2.6
				c0.1,1.1,0.3,2.2,0.4,3.4c0.2,0.1,0.5,0.2,0.7,0.4c-0.2-0.7-0.3-1.4-0.4-2c0.1-0.1,0.3-0.1,0.5,0.1c0.1-0.3,0.2-0.6,0.2-0.8
				c0-0.4-0.2-0.7-0.3-1.1c0-0.1,0-0.1,0-0.2c0.2-0.6,0.5-1.3,0.7-1.9c-0.1-0.1-0.2-0.2-0.2-0.4c-0.8-2.1-0.8-4.7-1-6.9
				c-0.1-0.1-0.1-0.2-0.1-0.3c-0.4-1.3-0.7-2.7-0.9-4.1c-0.2,0-0.3,0-0.5,0.1c0,0,0,0,0,0c-0.1-1.4,0-2.9,0.1-4.3
				c0-0.6-0.1-1.2-0.1-1.8c-0.1-0.4-0.2-0.7-0.3-1c-0.2-1-0.3-1.9-0.4-2.9c-0.1,1.1-0.2,2.2-0.4,3.3c0,0.1-0.1,0.2-0.1,0.2
				C610.9,46.2,611.2,48.7,610.7,51.2z"/>
			<path class="st0" d="M615.4,73.3c0.3,0,0.6,0,0.8,0c-0.3-1.5-0.8-3-1-4.5c-0.3,0-0.6-0.1-0.9-0.1c0,0.1,0,0.3,0,0.4
				c0.1,0.2,0.2,0.5,0.2,0.8c0,3.1-0.8,5.7-2.6,8.2c-0.8,1.2-2.8,0.8-2.8-0.8c0-0.3,0-0.6,0-0.9c-0.3-0.2-0.5-0.5-0.5-0.9
				c-0.8-0.4-1.3-1.5-0.5-2.4c0.1-0.1,0.2-0.2,0.2-0.3c-0.3-0.9-0.3-1.7-0.1-2.6c-0.3-4.5-0.8-8.9-1-13.4c-0.1-0.1-0.3-0.2-0.4-0.3
				V15.3l-0.5,2.6c-0.2-0.1-0.5,0-0.6,0.3c-0.2,1.4-0.4,2.8-0.8,4.2c0,0,0,0,0,0c0,0,0,0,0,0c0,0,0,0,0,0c-0.2,0.6-0.4,1.2-0.6,1.8
				c-0.2,0.1-0.3,0.2-0.3,0.4c-0.2,0-0.4,0.1-0.5,0.3c-0.1,0.7-0.4,1.2-0.8,1.7c-0.1,0-0.2,0.1-0.3,0.2c0,0,0,0.1,0,0.1
				c-0.2,0-0.3,0-0.4,0.1c-0.2,0.2-0.4,0.4-0.5,0.6c-0.1,0.1-0.2,0.1-0.2,0.2c-0.3,0.4-0.3,0.2-0.4,0.9c-0.2,0.9,0.1,2.2,0.2,3.1
				c0,0.3,0,0.6,0.1,0.9c-0.2,0.3-0.3,0.6-0.5,0.9l-0.4,7.1c-0.1,2.4-1.6,4.5-3.8,5.2c0,0.1,0,0.3,0.1,0.4c0.3,0.1,0.6,0.4,0.7,0.9
				c0.3,1.8,0.3,3.6,0.4,5.4c0.1,1.8,1,3.2,1.4,4.9c0.3,1.2-1,1.9-1.9,1.5c0,1.7,0.1,3.4,0.1,5.2l-3.3,7.9
				c5.9,2.8,11.4,6.2,16.9,9.7l5.5-5.5L615.4,73.3z"/>
			<g>
				<path class="st0" d="M607.7,93.2c0-0.3,0-0.6,0-0.8l0-0.5c0.1-0.9,0.1-1.8,0.2-2.6l0.7-5.2l2.9-2.2c-5-4.1-10-8.3-15.5-11.8
					l-3.5,5.9c-1,0-2.1-1-3.4-1c-0.1,0.1-0.2,0.2-0.3,0.4c-0.5-0.7-1.3-0.2-2.4-0.4c-3.3-0.6-6.5-1.5-9.8-0.9
					c-1.3,0.3-2.3,1.1-2.8,2.3c0,0-0.1,0.1-0.1,0.1c-3-0.3-5.9-0.7-8.9-1.1c0,0,0,0,0,0c-0.8-0.1-1.6-0.2-2.4-0.4c0,0,0,0,0,0
					l-0.4-0.1c0,0,0,0,0,0c-4.1-0.6-8.3-1.3-12.4-2c-1.4-0.2-2.8-0.4-4.2-0.7c-0.2,0-0.4-0.1-0.6-0.1c0,0,0,0,0-0.1
					c-0.7-0.2-1.4-0.3-2-0.5c-0.1,0-0.2-0.1-0.3-0.2c-0.8-0.3-1.6-0.7-2.3-1.4c-0.7-0.6-1.7,0.2-1.3,1c0.6,1.3,1.5,2.4,2,3.7
					c0.3,0.7,0.4,1.4,0.5,2c1.5,0.8,1,3.4-0.8,3.5c-0.8,1.3-2.2,3.4-4,4.1c-0.9,0.3-0.5,1.8,0.5,1.7c2.4-0.3,4.7-0.4,7-0.5
					c0.5,0.1,1,0.2,1.4,0.1c0.2,0,0.4-0.1,0.6-0.2c0.1,0,0.1,0,0.2,0c1.8-0.1,3.3-0.5,4.9-0.6c0.2,0.3,0.4,0.6,0.7,0.8
					c0.8,0.7,1.8,1.1,2.9,1.3c1,0.1,2-0.2,2.8-0.9c0.1,0.1,0.1,0.2,0.2,0.2c0.2-0.1,0.5-0.2,0.7-0.4c4.2,0.6,8.5,1.2,12.7,1.8
					c0.7,0.1,1.5,0.2,2.3,0.3c0.1,0.2,0.2,0.4,0.3,0.5l2.8,0.1c0.3,0,0.6,0,0.8-0.1c2.3,0.3,4.7,0.5,7,0.3c0.1,0,0.2-0.1,0.3-0.1
					c0.4,0,0.6,0,0.8,0.1c1.1,0.1,2.5,0.5,4.2,1c0,0,3.8,4.3,6.9,7c-0.3,3.1,0.3,6.1,2.6,8.3c0.5,0.5,1.6,0.1,1.6-0.7
					c0.1-2,0.1-4-0.1-6c2.5-1.6,4.8-2.6,7.6-3.1C607.9,94.4,607.7,93.8,607.7,93.2z M558.4,80.7c-0.4-0.9-1.3-1.6-2.3-1.9
					c-0.6-0.5-1.5-0.7-2.3-0.6c-0.1-0.5-0.3-1-0.5-1.5c0.9-0.1,1.7-0.1,2.6-0.1c1.1,0.2,2.2,0.5,3.3,0.7c-0.4,0.3-0.7,0.6-1.1,0.8
					c0,0,0,0,0.1,0.1C559,78.9,559,80,558.4,80.7z M586.7,82.7c-1.7,1-3.6,1.6-5.5,2.1c-1,0.3-2-0.7-2.1-1.6c-0.1-0.6,0.1-1,0.4-1.4
					c-0.1-0.7,0.1-1.5,0.6-2c-0.6-1.5,1.3-3.4,2.9-2.2c1.2,0.8,2.7,1.1,3.7,2.1C587.5,80.4,587.8,82,586.7,82.7z"/>
				<path class="st0" d="M664.5,83.8c-0.5-0.2-1.1-0.4-1.7-0.7c-1-0.2-2-0.4-3-0.6c-2.5-0.3-5-0.4-7.5-0.9c0,0,0-0.1-0.1-0.1
					c0.2-0.2,0.3-0.5,0.4-0.8c-2.3-0.7-4.6-1.5-6.8-2.5c-0.2-0.1-0.4-0.2-0.5-0.3c-3.9-0.8-8.3-1.4-11.7-3.3
					c-0.1-0.1-0.2-0.1-0.3-0.2c-0.1-0.2-0.3-0.4-0.6-0.5c-5-1.6-10-3.1-15.1-4.6c0,1.5,0.4,3.1,0.4,4.6c0.2,0,0.4,0,0.6,0
					c0,0,0,0,0,0c0.2,0.2,0.4,0.3,0.6,0.3c1.6,0.8,3.2,1.5,4.9,2.1c0.2,0.3,0.6,0.5,1.1,0.4c0,0,0,0,0.1,0c0.5,0.2,1.1,0.3,1.7,0.5
					c0.2,0.1,0.4,0,0.6-0.1c0,0,0,0,0,0c0.3,0.1,0.6,0.1,0.9,0.1c0,0,0.1,0,0.1,0c1.2,0.2,2.5,0.3,3.8,0.5c0.1,0,0.2,0,0.3,0
					c3.8,0.3,7.8,0.1,11.6,0.1c2.4,0,2.7,2.7,1.4,4.2c0.1,0,0.2,0.1,0.4,0.1c0.9-0.5,2.1-0.5,2.9,0.2c0,0,0.1,0.1,0.1,0.1
					c0.1,0.1,0.2,0.3,0.4,0.5c0.2-0.1,0.5-0.2,0.8-0.2c4.5-0.2,8.7,0.9,12.9,2.3c0.2,0,0.3-0.1,0.4-0.1c1.9-0.1,8.6,0.6,10.5,0.7
					C672.4,85.4,666.1,84.4,664.5,83.8z"/>
				<path class="st0" d="M684.5,99.2c1.2-1.3,2.2-2.8,2.5-4.7L614.7,85l7.7,16.7c0,0,41.9,0.5,54.3-0.7
					C679.9,100.7,682.1,100.5,684.5,99.2z"/>
				<path class="st0" d="M685.2,90c-0.7-0.6-1.6-1-2.5-1.4c-2.5-0.5-4.9-1.1-7.3-2.1c-0.2-0.1-0.4-0.2-0.5-0.3
					c-0.2,0-0.3,0.1-0.5,0.1c-1.5,0.6-0.5,2.8,1,2.2C677.8,87.7,682.1,89,685.2,90z"/>
			</g>
			<path class="st0" d="M608.8,28.7c0,0.3-0.1,0.6-0.2,0.8c0.2,0.8,0.3,1.7,0.5,2.5c0.3,1.6,1.2,5.5,0.3,7.1
				c-0.5,0.8,0.7,1.6,1.2,0.8c0-0.1,0.1-0.2,0.1-0.3c0-0.1-0.1-0.2-0.1-0.3c-0.8-2.9-0.7-5.9-0.7-8.9c0-0.1-0.1-0.1-0.1-0.2
				c-0.6-1.7-2.2-10.9-2.3-12.6c-0.1,0,1.1,7.4,1.1,7.4C608.6,26.2,608.7,27.4,608.8,28.7z"/>
		</g>
	</g>
	<path class="st0" d="M289,122.5c0.4-1.2,1-2.2,1.8-3.2c0.6-0.7,2.3-1.7,5-3c2.8-1.7,4.4-2.6,4.7-2.6c1.2,0,2,0.4,2.6,1.3l0.4,1.6
		l0.8,3c-0.2,0.7-0.3,1.3-0.3,1.6c0,0.6,0.4,1.3,1.1,2c1.3-0.4,3-1.2,5.2-2.4l4.1-1.4l4.1-2.7l2.6-1.1c1.4-0.7,2.2-1.1,2.3-1.1
		l2.1,0.4c0.1,0,0.2,0,0.3,0c0.3,0,2.5-0.7,6.6-2c0.5-0.1,1.4-0.2,2.9-0.2c1.1,0,1.9,0.2,2.3,0.5c0.1,0.1,0.7,0.7,2,1.9
		c0.8,0.2,1.2,0.3,1.4,0.3c0.1,0,1.1-0.5,2.8-1.4c0.1-0.1,0.3-0.1,0.5-0.1c0.8,0,1.8,0.5,2.9,1.5c1,0.9,1.8,2.3,2.2,4.2
		c-1,1-2.9,2.5-5.8,4.6c-1.4,1.8-2.5,2.7-3.1,2.7c-1,0-2.4-1-4.1-3.1c-1.2,0.1-2.1,0.2-2.9,0.2c-0.8,0-2.2-0.4-4.2-1.2
		c-1.5-0.6-3.1-1-4.7-1.2c-0.6,1.3-1.7,2-3.2,2.1c-1.8,0.1-2.9,0.3-3.4,0.4l-3.9,1.2c-0.3,0-0.8-0.2-1.6-0.7
		c-1.3,1.2-3.6,2.9-6.8,5.2c-2.1,1.5-3.1,4.1-3,7.8v0.3c0,0.8,0,1.8,0,3.1c0.1,1.2,0.1,2.1,0.1,2.9c0,0.7-0.7,1.8-2.2,3.2
		c1.1,1.2,1.6,2.2,1.6,3c0,0.5-0.1,1-0.2,1.6l1.5,0.4l0.3,2.9l0.5,17.3l-0.4,1.1l-2.5,1.4c-3.6,0.7-5.4,1.2-5.4,1.5
		c0,0.3,2,0.7,6.1,1.3l1.6-0.4c0.6,2.1,1,3.6,1,4.4c0,1.5-0.7,2.6-2.2,3.5c-0.6,0.3-2.2,0.6-4.9,1c-0.5,0.1-1.9,0.9-4.2,2.4
		c-0.4,0.3-0.8,0.4-1.4,0.4c-1.6,0-2.3-0.7-2.3-2c0-0.4,0.5-2.2,1.5-5.5c0.1-0.4,0.2-0.8,0.2-1.2c0-0.1-0.2-1.6-0.5-4.4
		c0-0.2,0.1-0.7,0.4-1.6l2.3-0.7c0.1-0.6,0.1-1.1,0.1-1.6c0-0.8-0.5-1.8-1.5-3c0-0.9,0-1.7,0-2.4c0-0.6-0.2-2.1-0.6-4.6
		c0.2-2.1,0.3-3.9,0.3-5.4c2.4-0.8,3.6-1.9,3.6-3.1c0-0.4-0.1-0.9-0.3-1.5c-0.8,0.2-1.4,0.3-1.9,0.3c-0.5,0-1-0.3-1.6-0.8
		c0-1.3,0-2.7,0-4.3v-2v-2.6v-0.8c0-0.5,0-1.1-0.1-1.7c0-0.6,0-1.2,0-1.5c0-1,0.4-2.4,1.3-4.2c-0.8-0.7-1.3-1.3-1.5-1.8
		c-0.1-0.2-0.2-2.3-0.4-6.3C291.1,125.4,290.4,124.2,289,122.5z"/>
	<path class="st0" d="M356.2,122.4c0-0.9,1-2.1,2.9-3.7c4.3-3.3,7.9-5.5,11-6.5l2.9,3c-0.6,1.6-1.2,3.9-1.5,6.8
		c-0.4,2.4-0.6,3.8-0.6,4.4v3.6l-1.6,2.3c0,1.6,0.7,3.2,2.1,4.6c-0.4,0.7-0.6,1.1-0.6,1.3l0.2,4.7l-0.1,1.1
		c-0.1,0.5-0.1,1.2-0.1,2.2l-0.5,18.5c0.1,1,0.5,3.2,1.3,6.7l0.2,4.1c0.4,1.9,0.6,3.1,0.6,3.4c0,1.4-0.6,2.6-1.7,3.7
		c-0.3,0.3-1.5,1.2-3.7,2.5c-3.2,2.5-5.1,3.9-5.5,4.1c-0.6,0.3-1.2,0.4-1.7,0.4c-0.8,0-1.5-0.4-2.3-1.2c0.3-1.6,0.4-2.7,0.5-3.2
		c0.1-0.8,0.4-2.2,1.1-4.3l0.1-4.7l0.7-9.5l-0.1-1.7c0.1-1,0.6-1.6,1.5-1.6c0.3,0,0.6,0,1,0.1c0.3-1,0.5-1.7,0.5-2.1
		c0-0.5-0.2-1.5-0.6-3c-0.2-0.6-0.4-1.5-0.6-2.7l-1.6-1.3c0.2-1.4,0.3-2.5,0.3-3.2c0-0.3,0-0.8-0.1-1.5c0-0.5,0-1,0-1.4
		c0-0.8,0.3-1.8,1-2.8c-0.6-0.8-1-1.6-1-2.4v-0.8v-0.7l-0.2-2.2c4.2-0.8,6.3-1.5,6.3-2c0-0.1-0.1-0.2-0.2-0.3
		c-1-0.8-2.2-1.3-3.6-1.3c-1,0-2.3,0.1-3.8,0.2c0.2-1,0.3-1.6,0.3-1.9c0-0.1-0.3-3.3-0.8-9.6C357.9,123.8,357.3,123.1,356.2,122.4z"
		/>
	<path class="st1" d="M357.9,83.4L357.9,83.4c-0.1-2.4,1.5-4.8,4.9-7.5c0.8-0.6,1.6-1.4,2.5-2.5c0.1-0.1,0.7-0.6,1.9-1.5
		c2.4-3.6,3.9-5.5,4.5-5.9c1-0.7,1.8-1.1,2.4-1.1c0.3,0,1,0.5,2.2,1.5c1.2,0.9,1.8,2,1.8,3.3c0,1-0.6,1.9-1.7,2.7
		c-3,2.1-5.8,4.5-8.5,7l-2.7,1.7l-3.4,2.3c-1.8,1-2.8,1.5-3.1,1.5C358.2,84.8,357.9,84.4,357.9,83.4z"/>
	<path class="st0" d="M454.3,117.1l3.1-1.9c1,1.2,1.6,1.9,2,2.2c0.1,0.1,0.8,0.5,2,1c0.6,0.3,3.4,3,8.3,8.1c1.5,1.6,2.6,3.1,3.2,4.6
		c0.5,1.2,1.1,2.7,1.6,4.5c0.4,0.9,0.8,2.1,1.4,3.5l-0.7,0.7c-0.7-0.1-1.7-0.4-2.9-0.9l-3.7,1.4l-3.3-0.6l-2.9,0.8
		c-4-2.8-6.1-4.3-6.3-4.3c-0.4,0-1.9,1.3-4.6,4c-4.1-0.8-6.3-1.2-6.6-1.2c-1,0-2.3,0.1-3.7,0.3l-0.5-0.4c-1,0.1-3.8,0.2-8.4,0.2
		l-3.6,0.4l-4.5,0.4l-4.6,0.8l-4.1-0.1c-3.7,1.2-6.3,1.8-7.7,2c-0.3,2.2-0.6,3.7-1,4.6c-0.4,1-1.2,2-2.3,3.2c2.1,1.4,3.2,2.4,3.3,3
		c0.6,4.1,1.3,6.9,1.8,8.3l1.7,1l-0.5,3.6l3,0.8c0.6,2.6,1.5,4.4,2.5,5.3c1,0.8,2.6,1.4,4.8,1.7c0.3,2,0.8,3.2,1.5,3.6
		c0.5,0.4,1.7,0.6,3.5,0.8l1.6,2.5c0.7-0.1,1.3-0.2,1.8-0.2c0.4,0,2.3,0.8,5.8,2.4c0.8,0.4,1.6,0.6,2.5,0.6c0.8,0,2.5-0.4,4.9-1.2
		l6.2-0.7l4.7-1.4c2.3-0.1,3.8-0.3,4.6-0.6c1.1-0.5,3.1-1.6,6-3.4c2.8-1.7,4.5-2.9,4.9-3.6c1.2-1.4,2.3-2.9,3.3-4.7
		c0.5-0.8,1.4-1.2,2.7-1.2c0.6,0,1.4,0.4,2.5,1.3c-0.5,2.3-0.9,3.8-1.3,4.6c-2.7,4.6-4.4,7.6-5.1,9.1c-0.8-0.4-1.5-0.6-2.1-0.6
		c-0.4,0-1.5,0.6-3.2,1.9c-1.2,0.8-2.6,1.2-4.4,1.4c-4,1.1-6.8,1.7-8.3,1.9c-2.6,0.3-4.3,0.5-5,0.7c-2,0.6-3,1-3.1,1l-5.7-0.9
		l-3.4,0.6l-1.6,0.1c-1.5,0.2-2.7,0.3-3.6,0.3c-0.8,0-3.2-0.2-7.1-0.7l-1.8-0.2l-2-1.3c-4.8-1.5-7.5-2.4-8-2.6
		c-0.3-0.2-1.4-1.2-3.3-2.9c-0.1-0.1-1.3-0.8-3.4-2.1c-1.8-1.1-2.8-1.9-2.9-2.5l-1.7-3.1c-0.3-0.5-1.4-1.7-3.3-3.7
		c0.6-1,1-1.8,1-2.3c0-0.2-0.8-2-2.5-5.4c-0.5-0.9-0.7-3.6-0.7-8.2c0-1.4,0.5-3.7,1.4-7c0.8-2.5,1.3-4,1.6-4.4l3.3-3.9l2.1-4.6
		c2.2-2.1,4.7-4.4,7.6-7l7.1-4.4l7.2-4.9l2.6-0.5l7.4-2.3l4.7-0.4c3.8-1.4,5.9-2.1,6.3-2.1C450.6,112,453,113.7,454.3,117.1z
		 M443.1,131.6l1.6,2c1.3-0.3,2.2-0.4,2.6-0.5c1.7-0.3,3.5-0.7,5.2-1.4l5.5,0.5c0.1,0,0.2-0.3,0.5-1c0.1-0.4,0.1-0.7,0.1-1
		c0-0.6-0.4-1.3-1.2-2.1c-0.1-0.1-0.5-0.5-1-1.2c-1.5-2.1-2.5-3-2.9-2.9l-3.2-1.6c-0.4-0.2-1-0.9-1.8-2.2c-1.9-0.3-5.1-0.4-9.6-0.4
		l-1.9-0.1l-3.3,1.9c-0.1,0.1-1.9,0.6-5.3,1.4c-2.7,1-5.1,1.9-7.2,2.8c-0.5,0.3-1.7,1.4-3.8,3.3c-0.4,0.3-1.1,0.9-2.2,1.7v0.6
		l0.2,0.2l7.1,2.8l2.1,2.1l3.8-4.6c0.3-0.3,0.7-0.4,1.1-0.4c0.2,0,1.8,0.4,4.7,1.3c0.1,0,0.1,0,0.2,0c0.8,0,2.7-0.3,5.5-1
		C440.6,131.9,441.6,131.8,443.1,131.6z"/>
	<path class="st0" d="M501.1,123.4c0.5-2.3,2.2-4,4.9-5.2c3-2.4,5.2-3.6,6.6-3.6c1.5,0,2.4,0.4,2.8,1.2c0.1,0.2,0.2,2.1,0.3,5.6
		c0,0.9,0.7,2.6,2.2,5.2c2.6-3.3,4.1-4.9,4.6-4.8l3.4-2.1c2.6-2.1,4.2-3.2,4.9-3.2c0.8,0,1.7,0.7,2.5,2.1c3.6-2.6,7.1-3.9,10.6-3.9
		c0.7,0,1.3,0.1,1.8,0.3l1.9,0.6c2.5-0.9,4-1.4,4.6-1.4c0.7,0,2.5,0.4,5.4,1.1c1.7,0.4,3.4,0.6,4.8,0.8c0.9,1.1,1.5,1.7,1.9,1.7
		l2.2,0.4c1.7,0.3,3.6,2.1,5.9,5.4c1.4,2.1,2.1,6.8,2.1,14.1c-1.5,0-3.1,0.3-4.7,0.9c-1.6,0.6-2.4,1.1-2.4,1.6
		c0,0.1,2.2,1.3,6.5,3.6c0.5,0.3,0.8,0.9,0.8,1.9c0,1.1-0.6,3.1-1.8,5.9c-0.1,0.1-0.1,0.3-0.1,0.6c0,0.8,0.7,1.8,2,3.1
		c-0.2,1.4-0.3,2.5-0.3,3.5c0,0.6,0.5,2.3,1.5,4.9l0.2,5.3l0.3,4.7l-0.3,4.1c0,0.6,0.3,1.8,1,3.6c-1.7,1.3-3,2.1-3.7,2.5
		c-0.3,0.2-1.8,0.8-4.4,1.8c-0.5,0.3-1.9,1.2-4.3,2.7c-1.8-1.9-2.7-3.5-2.7-4.7c0-0.5,0.6-3,1.7-7.6c0.1-0.3,0.1-1.1,0.2-2.2
		c0.1-0.6,0.1-1.1,0.1-1.5l1.9-0.7c3.2-0.5,4.9-0.8,4.9-1.2l-1.1-0.7c-1.5-1-4-1.8-7.3-2.5c0.4-2.8,0.9-4.5,1.5-5l2.9-2.7
		c1.5-1.5,2.3-2.8,2.3-4.1c0-0.3-2.1-1.2-6.4-2.8l0.3-3.5l-0.5-5.1c0-0.1,0.1-0.3,0.3-0.8c0.3-0.6,0.5-1.6,0.8-2.8
		c-1-1.2-1.5-1.9-1.5-2.3l0.1-4.8c0-0.6-0.5-1.5-1.5-2.6c-1-1.1-1.5-2.2-1.5-3.3l-0.5-0.6c-1.6-0.5-2.4-0.8-2.6-1.1l-2.7-4.6
		c-0.5-0.8-1.1-1.3-1.7-1.3c-1.1,0-2.4,0.6-4,1.9c-2.4,2.1-4.5,3.1-6.4,3.1c-0.3,0-1.6-0.3-4-0.8l-1.8,1.8v0.5
		c-1.4-3.2-2.7-4.8-4.1-4.8c-0.1,0-0.4,0.1-1.1,0.4c-0.9,0.5-1.9,0.8-3,1.1c-1.4,0.4-3.1,1.3-5.2,2.6c-3.2,1.7-5,3.1-5.5,4
		c-1,1.6-1.5,3.1-1.5,4.6c0,0.1,0.1,2.1,0.2,6.2v0.3v0.1c0,1.2-0.3,1.9-0.8,2.2l-4.4,3.2c-0.5,0.3-0.7,0.6-0.7,1
		c0,0.6,0.6,1.3,1.7,1.9c2.6,1.4,4.1,2.2,4.5,2.6c0.3,0.4,0.5,1,0.5,1.8c0,0.2-0.1,0.8-0.2,1.9l0.2,7.2c0,0.4-0.6,1.4-1.7,2.9
		c-0.1,0.2-0.2,0.5-0.2,1.1c0,1.2,0.7,2.4,2,3.7l-0.3,0.3c0.1,1.5,0.2,2.6,0.2,3.1c0.3,3.8,0.8,6.8,1.5,8.8
		c-0.6,1.4-1.3,2.2-1.9,2.4c-0.3,0.1-1.3,0.3-3.2,0.6c-0.3,0-0.8,0.2-1.4,0.5c-0.8,0.3-1.3,0.5-1.6,0.6c-0.5,0.1-0.9,0.5-1.5,1.4
		c-0.5,0.8-1.3,1.2-2.2,1.2c-0.4,0-1-0.5-1.7-1.4c-0.5-0.5-0.8-1.1-0.8-1.6c0-0.5,0.1-1.1,0.2-1.7c0.5-1.9,0.7-3.1,0.7-3.4l0.1-7.4
		c0.6-1.9,0.9-3,0.9-3.3c0-0.6-0.1-1.4-0.4-2.3c-0.3-1.3-0.5-2.2-0.5-2.6c0-0.3,0.1-0.9,0.2-1.9c0.1-0.6,0.1-1.2,0.1-1.6
		c0-0.8,0-2.1-0.1-3.7c-0.1-0.8-0.1-1.6-0.1-2.3c0-0.8,0.2-1.9,0.7-3.2l2.7-1.3c-0.1-0.6-0.4-1-0.7-1.4c-0.4-0.2-1.4-0.4-3.1-0.5
		c-0.1-1.2-0.1-2.2-0.1-3c0-0.6,0.1-1.5,0.4-2.9c0.1-0.3,0.1-0.7,0.1-1.2c0-1.5-0.4-4.2-1.1-8.2l2.2-1.3c-1.2-1.8-1.9-2.9-2-3.2
		c-0.1-0.2-0.3-0.9-0.4-2.2C503.4,126.6,502.6,125.2,501.1,123.4z"/>
	<path class="st1" d="M255.4,130.4h-11.1l-0.4,1l-4.4,0.5l9.5,3.4l-7.9,1.8l0.4,3.6c-0.1,3.1-0.2,4.7-0.2,4.9
		c0.1,0.7,0.5,1.5,1.3,2.4c1-0.2,2.2-0.7,3.7-1.5c0.6,1,1,1.9,1.1,2.6c0.1,0.7-0.5,1-1.7,1h-0.8l-1.7,2.1c-0.2-0.2-0.7-0.7-1.5-1.5
		c-0.7-0.7-1.1-1-1.4-1c-1,0-1.5,0.7-1.3,2c0.1,0.6,0.2,1.3,0.5,2.1c-0.8,1.2-1.7,3.6-2.7,7.1l-2.1,3.9l-2,4.5l-2.7,3.3l-2.9,4.4
		l-2.9,2.4c-4.1,3.7-6.9,5.9-8.3,6.7l0,2c-1.4,0.7-2.5,2-3.4,3.8l-2.2-1.5c-2.8,1.3-4.5,2.3-5.2,2.9c-1.8,1.3-2.9,2-3.4,2.2
		c-2,0.7-3,1.4-3,1.9c0.1,0.6,0.6,1.4,1.4,2.2c-0.7,1.4-1.5,2-2.4,2c-0.6,0-1.7-0.4-3.1-1.2c-1.1,0.8-3.7,2.2-7.6,4.1l-2.7,1.7
		c-4,0-6.2,0-6.5,0.1c-0.6,0.2-2.2,0.9-5,2l-3.2,0.4c-3,1.1-4.8,1.7-5.3,1.7c-0.9,0-2-0.6-3.1-1.9c-1,0.4-1.7,0.6-2.2,0.6
		c-0.3,0-0.8,0-1.4-0.1c-0.7-0.1-1.3-0.1-2-0.1c-0.6,0-1.1,0-1.5,0.1l-1.5,0.3c-0.4,0-1.5-0.3-3.2-0.9c-0.7-0.2-2.9-0.7-6.5-1.3
		c-3.7-0.9-6.2-1.3-7.5-1.4c-1.6-1.1-3-1.8-4.4-2.3c-0.4-0.1-1.6-0.6-3.6-1.7c-1.7-0.9-3.1-1.5-4.1-1.8c-0.8-0.3-1.3-0.5-1.4-0.7
		c-0.3-0.1-0.7-0.8-1-2.1c-1.8-1.1-3.3-2.1-4.6-3.2c-0.6,0.2-1,0.4-1.3,0.4c-1.3,0-2.5-0.4-3.5-1.2c-0.7-0.5-1.1-1.1-1.2-1.9
		c-0.1-0.9-0.1-2,0.1-3.2c-2.5-1.4-4.8-2.9-6.9-4.6l-2.5-1.8c-0.3-0.2-0.9-0.9-1.6-2c-1.8,0.6-2.9,0.9-3.3,0.9c-0.6,0-1.3-0.3-2-0.8
		c-0.8-0.6-1.3-1.1-1.4-1.8c-0.1-0.6,0.4-1.6,1.4-3c-0.5-0.4-1.2-1.2-2.1-2.3c-0.3-1-0.7-1.8-1.5-2.4c-1.3-1.1-2.5-2.7-3.6-4.9
		l-2.6-0.6l0.8-0.2l-1.2-1.4c0.1-0.8,0.1-1.5,0-2.1c-0.1-0.4-0.2-0.7-0.3-0.9c-2.5-3-3.8-4.6-3.8-4.8l-0.2-2.6l-1.1-3.2
		c-0.5-1.7-1.4-3.2-2.7-4.6c-0.9-1-1.4-1.6-1.4-1.9l-0.3-4.6c0-0.1-0.2-0.5-0.4-1.2c-0.4-0.8-0.6-1.5-0.6-1.9l-0.1-0.6l-0.1-0.6
		l-0.4-3.6H59c0.1,1.1,0.1,1.8,0.1,1.9c0.1,2,0.1,3.1,0.1,3.2l0,0.2c0.9,6.4,1.8,10.7,2.7,12.8c0.6,1.5,1.1,3.4,1.5,5.7
		c0.5,2.8,1.5,4.5,3,4.9c1.1,0.3,1.9,0.7,2.5,1.2l0.6,2.7h-1.5c-0.8,0.9-1.2,1.6-1.1,2.1c0.1,0.5,0.9,2.4,2.6,5.6l5.2,6.7
		c1.4,2.1,2.1,3.3,2.4,3.5c0.3,0.3,0.5,0.6,0.7,0.8c1.3,0.9,2.1,1.5,2.2,1.7c0.3,0.4,0.6,1.6,0.9,3.5c0.7,0.6,1.9,1.8,3.8,3.8
		c1.7,1.9,2.9,2.9,3.5,2.9c0.1,0,0.7-0.2,1.8-0.5c1.3,0.7,2.6,1.1,3.8,1.1c0.7,1.1,1.3,2.1,1.8,3c0.4,0.7,0.7,1.6,1,2.8
		c1.1,0.4,1.8,0.8,2,1.2c0.3,0.4,0.5,1.1,0.7,2c1.6,0.8,4.4,2.3,8.3,4.4c3.9,2,6.7,3.5,8.4,4.6c0-6.1,0.3-9.2,0.7-9.3l0.4,0.7
		c0.7,1.3,1,2,1,2.1c1.5,4.1,2.4,6.3,2.4,6.4c0.5,1.3,1.2,1.9,2.1,1.9l0.3-0.1c1.4-0.4,2.7-0.7,3.9-0.7l1.6,1.8l-0.3,0.3
		c0.4,0.7,0.8,1.2,1.2,1.4c0.4,0.2,1.6,0.3,3.6,0.4l3.2,0.8l3.4,0.5l4.6,1.2l15.6-1.7l0.8-0.2l19.1-5l3.1-0.6l23.6-11.1l2.7-1.1
		l14.4-9.3c1-0.6,2-1.5,3.2-2.7c2-2.4,3.3-3.6,3.7-3.9c2.1-1.5,3.3-2.4,3.5-2.7c0.4-0.5,1.9-2.7,4.5-6.5c3-3.2,6.2-7.5,9.6-12.7
		c1.7-2.7,2.4-4.4,2.3-5.1l-0.1-1.1c0-0.5,0.6-1.1,1.8-1.9l-0.8-1.9c0.9-0.9,1.4-1.6,1.8-2.2c0.3-0.7,0.6-2.5,0.9-5.6l0.7-2.7
		l0.3-1.7c0.8-3.8,1.1-6.2,1-7C255.7,132.5,255.6,131.6,255.4,130.4z M82.9,164.6l-1.5-0.5h-0.6l0-0.2h1.1l1.5,0.5l0.1,0.1l0,0.1
		H82.9z"/>
	<g>
		<path class="st0" d="M54.5,103.1c-0.3-0.7-0.2-1.5,0.3-2.1c-1.6,0-3.1,0-4.7,0.1c1.3,1.4,2.9,2.7,4.5,3.8
			C54.4,104.3,54.4,103.6,54.5,103.1z"/>
		<path class="st0" d="M57.3,106.4c0.8,0.4,1.6,0.7,2.4,1c0.3-0.6,0.6-1.1,0.9-1.7C59.6,106,58.4,106.2,57.3,106.4z"/>
		<path class="st0" d="M64.3,98.9c0,0.2-0.1,0.5-0.2,0.7c0.2,0.3,0.4,0.6,0.5,1c0.7-0.7,1.4-1.5,2.2-2.2c-0.4-0.4-0.6-0.8-0.9-1.3
			C65.3,97.7,64.8,98.3,64.3,98.9z"/>
		<g>
			<path class="st0" d="M274.8,94.5l-7.5,0.6l-6.8-4.1l-5.8,0l-5.9,0.6l-0.3-0.2c-0.3-1.5-0.5-2.5-0.7-2.9c-1-1.4-2.7-3.1-5.4-5
				c0-0.2-0.1-0.5-0.1-0.6c-0.1-0.9,0.3-1.9,1.2-2.9c-0.4-0.9-1.5-2.4-3.3-4.4c-0.3-0.7-0.7-1.4-1.2-2.2l1.6-3.1l1.3-6.5l3.9-5.5
				l0.1-8.9l6-6.6l2-8.8l-7.6,5.2l-7.7,3.2l-8.1,2.2l-6.7,1l-5.3,4.2l-3.4,1.2c-1.7-1.1-2.7-1.6-2.9-1.6c-0.7,0-1.5,0.4-2.4,1.2
				c-1-2-1.9-3.3-2.7-3.8c-0.9-0.5-2.6-1.1-5.1-1.8c-0.4,0.4-0.9,0.8-1.6,1.1c-0.7-1.7-1.4-2.6-2-2.8l-1.5-0.5l-1-0.3l-0.2-0.9
				l-0.5-5.1l-0.7-5.1l-3.4-6.1l2.1-6.9l-2.6-5.3l-3,4.8l-5.2,4.1l-4.4,4.8l-3.4,3.8l-2.5,4.6l-1.8,1.9c-0.6-0.1-2.2-0.5-4.9-1.2
				c-0.9-0.2-3.2-0.4-6.9-0.6c-0.6,0-1.2,0-1.9-0.1c-1.4-0.1-2.4-0.2-3.2-0.2c-0.3,0-1.5,0.2-3.4,0.6l-3.9,0.5l-0.1,0l5.9-1.5
				l-4.2-5.1l-3.6-5.5l-3.2-5.9l-5.9-6l-5-6.7l-5.9-4.5l-1.8,7l-1.8,8.2l-1.2,8.3l-1.1,6.5l-2.1,6.3l0.7,6.6l-3,1.4
				c-0.2,0.1-0.8,0.7-1.6,1.9c-1,0-2,0.5-2.9,1.4c-0.5,0.6-1.6,1.3-3.4,2.1c-3.4,1.4-5.4,2.4-5.7,2.9c-0.2,0.2-0.4,0.5-0.5,0.9
				l-1.6-0.4l-4.7-2.4L89,48.1L82.7,46l-6.2-2.5L71,42.1l3,4.8l1.7,6.6l1.6,6.6l0.8,3.9c0.2-0.7,0.4-1.5,0.6-2.4
				c0.8,1.9,1.7,3.6,2.7,5.4c-0.6,0.4-1.4,0.4-2.1,0.2L81,70l0.8,1.1c-0.8,1.2-1.2,2.2-1.1,3.2c0,0.2,0.1,0.6,0.1,1l-1.3,1.5l-1-0.5
				c-1.4,1.9-3.4,4.9-5.9,9.1c-0.3,0.4-0.6,1.2-1.1,2.3l-5.1-0.4l-6,4l-6.6,0.5l-8.6-1l-8.3,1l-7.5,2.9l6.1,5l6.3,5.5l6.5,5.2
				l5.2,4.1l3.8,5.7l6.7,1.8l0-0.3c0.3,0.4,0.4,0.7,0.5,1c0.1,1-0.1,1.5-0.8,1.5c-0.7,0-1.5-0.2-2.4-0.6c-0.7,0.9-1.1,1.9-1.3,3.1
				h12.9l-0.5-3.8c0,0,0.1,0,0.1,0c0.8,0,1.7,0.1,2.5,0.1c0.2,0.2,0.6,0.4,1,0.5c21.7,3.2,43.5,6.1,65.3,8.8
				c1.1-0.2,2.3-0.3,3.5-0.4c0.4-1.1,1-2.1,1.7-3c-13.9-1.7-27.7-3.5-41.6-5.4c-1.8,0-3.7-0.1-5.6-0.2c-3.6-0.2-7.2,0.4-10.5-1.3
				c-0.6-0.3-0.8-0.8-0.9-1.2c-1.8-0.5-3.7-1.3-5.1-2.4c-1.6-3.6-3.1-7.1-4.7-10.7c0-0.3-0.1-0.6-0.3-0.8c-0.2-0.6-0.5-1.1-0.7-1.7
				c0-0.1-0.1-0.1-0.1-0.1c-0.2-1.1-0.2-2.4-0.3-2.9c-0.2-1.1-0.3-2.2-0.4-3.3c4.7,1.4,9.5,2.5,14.4,3.4c0.3,0.1,0.6,0,0.8-0.2
				c10.3,4.9,20.8,9.4,31.5,13.5c0.5-0.1,1.1-0.3,1.6-0.4c1.6-0.3,3.1,0.4,4.6-0.1c2.1-0.6,3,2.4,1.2,3.3c6.4,2.3,12.8,4.5,19.3,6.6
				c0.9-0.8,2.2-1.3,4-1.2c0,0,0,0,0,0c2.7-0.9,5.7-1.2,8.5-0.7c0.1-0.8,0.2-1.6,0.3-2.3c2.9-7.2,5.9-14.4,9.1-21.4
				c-0.1-0.3-0.1-0.6,0-1c1-3.9,2.9-7.2,5.3-10.3c1.4-2.9,2.8-5.8,4.2-8.6c2.8-4.3,5.6-9.9,10.8-11.4c0.4-0.1,0.7-0.3,0.9-0.6
				c3-1,6-1.9,9.1-2.7c-0.7,2-1.3,4-1.7,6.1c-0.2,0.2-0.3,0.5-0.4,0.8c-0.5,3.1-1.7,5.9-2.9,8.8c0,0.2,0,0.4-0.1,0.6
				c-0.8,2.4-1.8,4.8-2.4,7.2c-0.1,0.5-0.4,0.8-0.8,1c-0.7,0.8-1.4,1.7-2.1,2.5c-1.4,3.1-3.3,6.1-5.6,8.9c-0.5,0.6-1,0.7-1.6,0.5
				c0,0.2-0.1,0.4-0.2,0.5c-1.5,2.9-3.4,5.4-5.2,8c-0.9,1.3-2.6,0.8-3.2-0.2c-4.4,4.6-8.8,9.2-13.4,13.6c4.6,0.9,7.5,3.4,9.3,6.6
				c0,0,0,0,0,0c2.7-0.5,5.5-0.5,8.3-0.1c-0.2-0.2-0.4-0.3-0.7-0.4c0,0,0,0-0.1,0c21.1-1.3,42.1-3.9,62.9-7.7c0,0,0.1,0,0.1,0
				c-0.3,0.9-1.3,1.5-3,1.8c1.5-0.1,2.9-0.2,4.1-0.2c2,0,3.7,0.6,5,1.7c0.1,0.1,0.2,0.2,0.2,0.4l-0.6,1.5h8c0-0.4,0-0.7,0.1-1
				c0.2-1.1,0.3-1.7,0.3-1.9c0-0.2-0.3-0.7-0.9-1.6l-1.1-1.7c-0.6-0.4-1-0.7-1.4-1l3.4-2.2l5-3l3.3-5.1l6.9-3.1l5.3-5.1l3.2-4.9
				L274.8,94.5z M64.3,110.8c-0.5,1.3-1.5,1.8-2.8,1.6c-6.9-1.1-13-6.7-17-12c-1.2-1.5,0.5-3.3,2-3.5c3.8-0.4,7.5-0.2,11.3-0.3
				c0-0.1-0.1-0.1-0.1-0.2c-1.4-2.6,2.6-4.9,4-2.3c0.3,0.5,0.6,0.9,0.9,1.2c2.1-2.4,4.2-4.7,7.2-5.9c2.8-1.1,3.9,3.4,1.2,4.4
				c-0.1,0-0.2,0.1-0.4,0.2l1.2,1.7c1.9,0,3.2,2.6,1.6,3.9C69.7,102.8,66.1,106,64.3,110.8z M77.1,119.5c-1.1-0.2-2,0.5-2.3,1.4
				c-0.7,0-1.5-0.1-2.2-0.1c-0.1,0-0.2,0-0.3,0.1l-0.3-2.7l-0.3-0.7c0-0.2,0-0.4,0-0.6c0.9-2.5,1.4-3.9,1.4-4.2c0-0.1,0-0.3,0-0.6
				c2,2.6,4,5.2,6,7.7C78.4,119.7,77.8,119.6,77.1,119.5z M79.2,114.7c-0.5,0.1-0.9,0.3-1.1,0.7c-1.5-1.9-3-3.9-4.5-5.9
				c-0.2-0.3-0.4-0.4-0.7-0.4c0,0,0,0,0-0.1l0.9-1.7l0.4-4.6l0.6-0.9c0.1,0.7,0.2,1.4,0.3,2.1c0.2,1.3,0.1,3.3,1.2,4.2L79.2,114.7z
				 M224.4,49.1c4.5-0.5,8.8-3,13.4-2.7c0.5,0,1,0.2,1.4,0.6c0.8-0.2,1.5-0.3,2.2-0.3c1.9-0.1,2.7,2,2,3.5c-0.9,1.8-2.1,2.9-3.3,4.4
				c-0.6,0.8-0.8,1.8-1.3,2.9c-0.9,1.8-2.3,3.3-4.4,3.4c-1.4,0-2.6-0.5-3.8-1.3c-0.9,0-1.7-0.4-2.1-1.1c-0.2,0.6-0.5,1.1-1.1,1.4
				c0,0-0.1,0-0.1,0.1c0.4,0.8,0.8,1.5,1.1,2.3c0.2,0.4,0.3,0.8,0.3,1.2c0.1,0,0.3,0,0.4,0.1c1.3,0.3,1.9,1.5,1.9,2.7
				c0,1-0.7,1.9-1.6,2.2c-0.3,0.6-0.8,1-1.4,1.2c-1.2,0.4-2.4-0.5-2.8-1.6c-0.2-0.6-0.5-1.2-0.7-1.8c-0.2-0.5-0.1-1,0.1-1.4
				c0,0,0-0.1-0.1-0.1c-0.5-0.9-0.9-1.8-1.4-2.7c-0.3-0.6-0.4-1.3-0.1-1.9c-0.2-0.6-0.2-1.4,0.1-2c0.4-0.8,1.2-1.5,2-2
				c0.3-0.2,0.6-0.3,1-0.3c-1-0.9-1.9-1.6-2.9-2.1C221,52.3,222.3,49.3,224.4,49.1z M232.9,99.4l0.1,0.3c0,0.2,0.7,0.9,1.9,2
				c0,0.3,0.1,0.6,0.2,0.9c-2.6,0.4-5.1,0.8-7.7,1.4c-0.6,0-1.2,0-1.8,0c0.6-0.4,1.2-0.8,1.8-1.3c0,0,0.1,0,0.1-0.1
				C229.3,101.5,231.1,100.5,232.9,99.4z M229.6,97.1c0.6-0.8,1.2-1.5,1.9-2.1l0.8,2.5c-0.5,0.3-1.1,0.6-1.6,0.9
				C230.5,97.8,230.1,97.3,229.6,97.1z M235.5,104.6c0.1,0.5,0.3,1,0.4,1.6c-1.1-0.2-2.2-0.3-3.4-0.5c0-0.2,0-0.5-0.1-0.7
				C233.5,104.9,234.5,104.7,235.5,104.6z M223.5,81.7c0.1,0,0.1-0.1,0.2-0.1c0,0.1,0.1,0.2,0.1,0.2l2.5,2.9l0.3,0.5
				c-1.9,0.4-3.8,0.7-5.8,0.9c-1.2-0.2-2.3-0.2-3.4-0.2C219.2,84.3,221.2,82.9,223.5,81.7z M219.2,81.6c1-0.9,2-1.7,3-2.6
				c0.2,0.3,0.3,0.6,0.5,0.9c-0.1,0-0.2,0-0.3,0.1c-1.1,0.5-2.1,1.2-3.1,1.8C219.3,81.7,219.3,81.7,219.2,81.6z M227.7,87l0.5,0.9
				l0.8,1.1c-2.1-0.3-4.3-0.7-6.4-1.1C224.3,87.6,226,87.3,227.7,87z M205.8,63.5c-1.1,2.2-2.1,4.5-3,6.9c-0.1-0.1-0.2-0.1-0.4-0.2
				c0.5-2.2,1.1-4.3,1.9-6.3C204.9,63.7,205.3,63.6,205.8,63.5z M174.1,43.5C174.1,43.5,174.2,43.5,174.1,43.5
				c0.2-0.3,0.3-0.5,0.6-0.8c1-1.1,2-2.1,3.1-3c-0.3-0.5-0.5-1.1-0.7-1.7c-0.5-0.2-0.9-0.7-1.1-1.4c-0.4-1.6,0.2-2.9,1.3-3.7
				c0.9-3.1,3-5.8,5.7-6.2c0.6-0.5,1.3-0.9,2.2-1.3c2.7-1.1,5,2.8,2.3,4c-0.2,0.1-0.4,0.2-0.6,0.3c-0.1,0.3-0.2,0.5-0.4,0.7
				c0.6,0.3,1.1,0.7,1.5,1.5c0.9,1.7,0.3,3.5-1,4.7c0.4,0.4,0.6,0.9,0.6,1.5c0,0,0,0.1,0,0.1c0.1,0.3,0.2,0.7,0.3,1
				c0.7,0.4,1.3,1.1,1.2,2c-0.1,1.4-0.7,2.4-1.9,3.2c-1,0.7-2.8,0.2-3.3-1c-0.3-0.3-0.5-0.6-0.6-1.1c-0.1-0.4-0.1-0.8-0.2-1.2
				c-0.2,0.2-0.4,0.5-0.6,0.6c-1.8,1.2-3.2,2.5-4.7,4c-0.3,0.3-0.6,0.5-1,0.6c0,0.6,0,1.3-0.1,2.1c0.7,0.3,1.3,0.6,1.9,0.9
				c-0.8,1.1-1.6,2.2-2.4,3.4c-0.7-0.4-1.6-0.4-2.2,0c0.1-3,0.2-6,0.3-9C174.3,43.8,174.2,43.6,174.1,43.5z M170.4,46.7
				c0.5-0.4,0.9-1,1.3-1.6c0.2-0.4,0.4-0.7,0.6-1c-0.1,3.6-0.2,7.2-0.3,10.8c-0.1-0.3-0.1-0.5-0.2-0.8c-0.2-0.7-0.6-1.1-1.1-1.3
				c-0.6-2.3-1.4-4.6-2.4-6.7C169.1,46.4,169.8,46.5,170.4,46.7z M165.9,45.8c0.6,1.2,1.1,2.5,1.6,3.8c-0.7-1.3-1.5-2.6-2.3-3.9
				C165.5,45.7,165.7,45.7,165.9,45.8z M154.4,42.3c-0.2,0.6-0.4,1.2-0.5,1.8l-0.2-3.9L154.4,42.3z M151.1,43.7
				c0.2,0,1.1,0.3,2.7,0.8c-0.4,1.6-0.7,3.2-0.9,4.8c-0.6-0.1-1.2,0.1-1.6,0.5c-0.2-2-0.4-4-0.6-6C150.9,43.7,151,43.7,151.1,43.7z
				 M148.7,44.1c0.2,2.7,0.5,5.4,0.8,8c-0.1,0.8-0.2,1.6-0.2,2.5c-0.6-1.5-1.3-3.1-2-4.6c-0.7-1.3-2.1-1.2-2.9-0.5
				c-1.2-1.7-2.4-3.3-3.8-4.8c1,0.1,1.8,0.2,2.5,0.2c0.9,0,1.6-0.1,2.2-0.2C146.6,44.4,147.8,44.2,148.7,44.1z M126.4,46.1
				c-0.3-0.3-0.4-0.8-0.4-1.3v-6.6c0-1.9,2-2.8,3.5-1.9c0.3-0.8,0.5-1.6,0.7-2.4c-0.6,0.1-1.2,0-1.7-0.3c-0.9,2.4-4.3,1.9-4.5-0.7
				c-0.2-3.1,0.2-6.2,0.5-9.3c0.2-1.7,1.8-2.4,3.1-2.1c-0.2-0.3-0.4-0.6-0.7-0.8c-2.5-1.5-0.2-5.5,2.3-4c3.2,1.9,3.6,5.4,2.8,8.8
				c1-0.7,2.5-0.8,3.3,0.6c0.1,0.2,0.2,0.3,0.2,0.5c1.6,1.1,2.9,2.7,4,4.2c1.3,1.6,2.8,3.6,3.6,5.6l1.7-0.1l-1.7,0.2
				c0.2,0.5,0.3,1,0.4,1.5c0.3,2.2-2,3.8-3.8,2.2c-1.1-1-2.2-1.9-3.4-2.7c-0.7,0.3-1.5,0.3-2.2-0.2c-0.1,0-0.2,0-0.3,0
				c-0.5,1.6-1.2,3.1-2.3,4.4c-0.3,0.3-0.6,0.5-1,0.6v2.7c0,0.2,0,0.3,0,0.4l0.5-0.1c-0.5,3.2-1,6.5-1.6,9.7
				c-0.5,0.2-0.9,0.6-0.8,1.4c0.3,3.2,0.6,6.4,1,9.6c-0.9-2.1-1.7-4.1-2.6-6.2c-1.1-3.9-3.3-7.8-5.2-11.4L126.4,46.1z M119.9,48.6
				c0.6,1.2,1.2,2.3,1.8,3.6c-0.8-1.2-1.6-2.3-2.4-3.5L119.9,48.6z M115.4,63.9c0-4.3,0.1-8.5,0.1-12.8c0.7-1.1,1.3-1.8,1.7-2
				c2,2.7,3.9,5.6,5.5,8.5c-0.2,0.5-0.3,1.1,0,1.7c6.8,16,13.6,32.1,20.4,48.1c-8.4-10.5-16.9-21-25.5-31.5
				c-0.1-0.2-0.2-0.5-0.3-0.7c-1-0.3-1.8-1.2-2-2.3c-0.2-1.1,0.1-2.3,0.3-3.4c-0.3-1.7-0.5-3.4-0.5-5.2
				C115.3,64.3,115.4,64.1,115.4,63.9z M113,61.7c0.1-0.7,0.2-1.4,0.4-2c0,0.9,0,1.7,0,2.6c-0.1,0-0.2,0.1-0.4,0.1
				C113,62.2,113,62,113,61.7z M108.3,57.2l-0.2-1.6c0.8-0.7,1.9-1.3,3.3-1.9c-0.1,1.3-0.2,2.6-0.2,3.9c-0.2,1.9-0.5,3.9-0.7,5.8
				c0.5,0.3,0.8,0.9,0.8,1.5c0,0.9-0.3,1.7-0.6,2.5c-0.4,0.9-1.6,1-2.4,0.6c-0.9-0.5-1-1.6-0.6-2.4c0,0,0,0,0,0
				c0-0.1,0.1-0.2,0.1-0.3c0-0.1,0-0.2,0.1-0.2c0,0,0-0.1,0-0.2c0,0,0,0,0,0c-0.4,0-0.8,0.1-1.1,0.4c-0.1-0.1-0.2-0.1-0.3-0.2
				c-1.3-0.9-3.7-2.1-5.2-3.6C103.4,59.5,105.8,58.1,108.3,57.2z M99.7,62.8c0.9,0.8,2,1.4,2.9,2.1c1,0.7,2,1.4,3,2.1
				c0,0.5,0.1,0.9,0.5,1.4c6.4,7.7,12.8,15.5,19.1,23.4c0.7-1,2.6-1,3.2,0.5c0.9,2.4,2.9,5.8,5.4,7c1.5,0.7,1,2.4-0.2,3
				c2.3,2.9,4.7,5.8,7,8.7c-9-6.3-17.8-12.9-26.5-19.6c-0.3,0.3-0.7,0.5-1.2,0.5c-1.5,0-2-1.5-1.5-2.6c-2.9-2.3-5.9-4.6-8.8-7
				c-1.8-3-3.2-6.2-4.1-9.6c-0.2-0.6-0.5-0.9-1-1c-0.5-1.9-0.9-3.9-1.2-5.8C97.4,65,98.5,63.9,99.7,62.8z M95.6,73.4
				c0.4,1.5,1,3,1.5,4.4c-1.2-1-2.5-2-3.7-2.9c-1.2-0.9-2.6-0.4-3.2,0.6c-0.7-0.3-1.4-0.7-2.1-1c1.3-1.5,2-2.4,2.2-2.6
				c0.4-0.6,0.9-1.6,1.5-3.1c0.8-0.4,1.7-0.9,2.8-1.6c0.3,1.8,0.7,3.5,1.1,5.2C95.5,72.7,95.5,73.1,95.6,73.4z M87,53.4
				c0.7,1.8,2.9,2.8,4.2,4.1c1.3,1.2,2.1,2.7,2.2,4.4c-3.8-2.5-8-5.4-10.7-9C83.6,51.6,86.2,51.4,87,53.4z M79.7,58.5
				c0.6-1.3,1.4-2.5,2.5-3c3.1,3.5,7.3,6.3,11,8.7c-0.6,1.2-1.9,2-3.2,1.1c-1-0.7-1.9-1.7-2.8-2.6c-0.2-0.2-0.4-0.4-0.6-0.6
				c-0.4-0.2-0.8-0.5-1.1-1c0,0,0,0,0,0c-0.4-0.3-1-0.6-1.2-1c-0.3,0.6-0.6,1.4-0.6,1.4c-0.4,1.1-0.7,2.3-1,3.4
				C81.4,62.9,80.5,60.7,79.7,58.5z M76.7,96.8c0.8-3.2,1.5-5.2,1.9-6c0.5-1,0.9-1.9,1.3-2.7c1.7,2.3,3.4,4.6,5.1,6.9
				c-1.5,0.5-2.3,2.7-0.5,3.6c0.3,0.1,0.6,0.3,0.9,0.4C82.4,98.4,79.5,97.7,76.7,96.8z M87.9,95.9c-2.3-3.3-4.7-6.6-7.1-9.8
				c1.1-2.2,1.8-3.5,2.3-4c0.3-0.4,0.5-0.7,0.7-1.1c0.1,0.2,0.1,0.4,0.2,0.6c-0.1,0.2-0.1,0.4,0,0.6c1.3,4.4,2.9,8.7,4.7,12.9
				c0.1,0.5,0.3,1.1,0.5,1.6C88.7,96.3,88.3,96.1,87.9,95.9z M123.2,111.4c-2-0.3-3.8-1-5.8-1.8c-2.8-1.1-5.6-0.8-8.5-0.9
				c-0.6,0-1-0.3-1.3-0.6c-0.3-0.1-0.5-0.2-0.8-0.5c-1-1.1-1.7-2.4-2-3.8c-3.7-1.6-7.4-3.3-11-5c-1.3-1.7-2.1-3.7-2.5-5.9
				c0-0.2-0.1-0.3-0.1-0.4c0.3-0.3,0.4-0.7,0.1-1.1c-2.7-4.1-4.8-8.4-6.3-13c0.7-0.8,1.3-1.5,1.9-2.2c1.6,0.7,3.1,1.5,4.6,2.3
				c9.8,7.8,19.6,15.7,29.6,23.2c0.3,0.1,0.6,0.1,1.1-0.1c1-0.3,1.8,0.3,2.1,1.2c0.1,0.4,0.2,0.8,0.3,1.2c0,0.1,0.1,0.3,0.1,0.4
				c7.1,5.3,14.3,10.4,21.7,15.3C138.6,117.2,130.9,114.4,123.2,111.4z M152,118.6c-0.4-1-0.8-1.9-1.2-2.9c-0.7,0.3-1.6,0.2-2.2-0.6
				c-2.1-2.9-3.7-6.1-3.7-9.7c0-0.7,0.4-1.2,0.9-1.5c-3.6-8.5-7.2-16.9-10.7-25.4c-0.2-0.7-0.3-1.5-0.5-2.2c-2.4-2-3.5-5-3.3-8.3
				c0-1,0.8-1.6,1.5-1.7c-0.5-3.3-0.9-6.7-1.1-10.1c0-0.3-0.1-0.5-0.2-0.7c0.6-3.6,1.2-7.2,1.7-10.7c1.5-0.3,2.4-0.4,2.6-0.4
				c0.4,0,0.9,0,1.4,0.1c3,2.5,5.3,5.8,7.3,9.2c1,2.3,1.9,4.6,2.7,6.9c0.6-0.1,1.3,0.1,1.7,0.8c1.5,2.7,1.4,5.7,0.9,8.6
				c0.8,1.8,1.3,3.6,1.6,5.6c0.1,0.6-0.3,1.1-0.7,1.4c0.2,1.6,0.5,3.3,0.7,4.9c0.5,0.3,0.9,0.9,0.9,1.5v0.2c0,0.5-0.2,0.9-0.5,1.2
				c1.2,11.3,1.5,21.6,1.1,30.7c-0.1,1.5,0,2.9,0.5,4.1C152.8,119.1,152.4,118.9,152,118.6z M160.5,111.1c-2.2,0-2.2-3.5,0-3.5
				C162.8,107.6,162.7,111.1,160.5,111.1z M162.5,88.7c-0.1,0.4-0.2,0.8-0.3,1.3c-0.9,3.3-1.6,6.7-1.9,10.1c0,0.2,0,0.4,0,0.5
				c-0.3,1.4-0.5,2.8-0.9,4.2c-0.8,3.4-1.9,6.6-2.6,10c0-0.1,0-0.1,0-0.2c0.3-3.2,0.7-7.9,0.7-13.6c0-3-0.1-5.1-0.2-6.8
				c-0.8,0.9-2.6,0.9-3.1-0.6c-2-5.6,0.7-10.6,1.1-16.1c0.1-0.8,0.5-1.2,1-1.5c0-0.1,0-0.1,0-0.2c-0.4-0.2-0.8-0.5-1-1.1
				c-1.6-4.9-1.7-10.2-1.1-15.3c0.1-0.7,0.4-1.1,0.9-1.4c-0.2-2.3-0.5-4.4-0.7-6.3c0.3-2.6,0.7-5.1,1.4-7.6c1.8-0.3,2.8-0.4,2.9-0.4
				c0.3,0,1.5,0.3,3.5,1c2.2,3.1,4,6.4,5.7,9.8c0,0.2,0,0.4,0.1,0.7c0.4,1.7,0.7,3.4,0.8,5.1c0.5,0.3,0.8,0.9,0.9,1.5
				c0.2,1.8-0.2,3.5-1,5.1c-0.3,0.6-0.7,0.8-1.2,0.8c-0.9,3.4-1.7,6.9-2.3,10.4c0.5,0.4,0.8,1,0.5,1.8c-0.9,2.3-1.2,4.6-1.3,7
				C164.2,88.1,163.4,88.6,162.5,88.7z M183.5,65.6c-0.1,0.2-0.1,0.4-0.1,0.6c-2,3.7-3.9,7.4-5.7,11.1c0,0-0.1,0.1-0.1,0.1
				c-0.1,0.2-0.2,0.4-0.2,0.5c-4.4,8.7-8.5,17.6-12.3,26.6c0.6-4.3,1.3-8.6,1.9-12.8c0.3-2.2,0.7-4.4,1-6.6
				c1.6-4.8,3.1-9.6,4.1-14.4c1.7-5.1,3.4-10.2,5-15.2c1.1-1.7,2.3-3.4,3.6-5.1c1.7,0.7,3,1,4,1h1.7c0.8,0.7,1.5,1.1,2.1,1.3
				C187.1,57.1,185.5,61.4,183.5,65.6z M187.4,61.6c1.2-3,2.3-6.1,3.2-9.3c0.7,0.9,1.5,1.7,2.4,2.4
				C190.9,56.8,188.8,59.1,187.4,61.6C187.4,61.6,187.4,61.6,187.4,61.6z M188.7,64.8c0.1-0.1,0.1-0.2,0.2-0.3
				c0.3-0.6,0.3-1.1,0.1-1.6c1.3-2,3-3.8,4.5-5.5c0.4-0.5,0.9-1,1.4-1.5c0.2,0.1,0.5,0.3,0.7,0.4c1.4,0.7,2.5,1.3,3.6,1.8
				C195.4,60,191.8,62.1,188.7,64.8z M193.2,65.1c-0.1-0.3-0.4-0.6-0.6-0.8c2.7-2,5.7-3.6,8.8-5c1.1,0.5,1.7,0.9,1.9,1
				c0.1,0,0.2,0.1,0.3,0.2c-0.3,0.6-0.5,1.1-0.7,1.7C199.6,63.1,196.4,64.1,193.2,65.1z M202.7,76.8c0.1-0.1,0.2-0.3,0.3-0.5
				c1.2-4.3,2.9-8.5,4.9-12.4c1.9,1.6,3.3,3,4.2,4.1l3.5-0.9c0,0,0,0,0,0.1c-2.1,1.9-4.2,3.7-6.3,5.6c-0.9-0.6-2.2-0.6-3,0.5
				c-1.5,2-3,3.9-4.5,5.9C202.1,78.3,202.4,77.6,202.7,76.8z M197.4,91c-1-0.4-1.7-1.8-0.8-2.9c2.9-3.5,6.9-6,9.6-9.7
				c0.4-0.6,1.1-0.8,1.7-0.7c0.6-0.8,1.2-1.6,1.8-2.4c0.1-0.2,0.2-0.3,0.3-0.5l6.4-5.7c0.1,0.3,0.1,0.5,0.2,0.8
				c0.1,0.5,0.2,1.5,0.3,3.2c1.4,1.1,2.8,2.6,4.2,4.5c-1.6,1.3-3.2,2.7-4.7,4c0,0,0,0,0,0c-10.1,7.9-20.2,15.8-30.3,23.7
				c-0.9,0.7-1.7,1.3-2.6,2C188.3,101.9,192.9,96.5,197.4,91z M169.7,123.6c2.8-2.6,5.8-5,8.7-7.4c-0.5-0.7-0.6-1.6,0.1-2.2
				c4.6-4.2,9.8-8,15.5-10c5.9-4.6,11.9-9.3,17.8-13.9c1.8-0.6,3.6-1,5.5-1.1c0,0,0,0,0,0c4.3,0.9,8.6,1.6,12.9,2.2l0.5,1.8
				c-1.8,1.5-3.2,3.4-4.3,5.5c-7.1,5.3-14.6,9.8-22.6,13.5c0.1,0.3,0.1,0.6,0,0.9c-1.2,3.9-7.7,5.9-10.5,3.4c0,0-0.1,0-0.1,0
				C185.6,119,177.2,120.3,169.7,123.6z M176.4,125.4c2-0.6,4-1.1,5.9-1.6c5.7-1.5,11.3-3.2,16.8-5.4c0.7-0.3,1.3-0.6,2-0.8
				c-0.1-0.6,0.1-1.2,0.8-1.6c4.8-2.7,10-4.4,13.7-8.6c0.9-1,2.3-0.5,2.8,0.5c0.7-0.1,1.3,0,1.9,0.1c1.1-0.4,2.3-0.8,3.5-0.9
				c1.1-0.1,2.2-0.1,3.3-0.1c3.1,0.4,6.2,0.8,9.2,1.3c0.8,2.8,1.3,4.5,1.3,5.1c0.1,0.6,0.1,1.6,0.1,2.9c1.1,0.5,2,1,2.7,1.5
				C219.4,121.7,197.9,124.2,176.4,125.4z M251.6,118.1c-0.4-0.6-0.7-1.3-0.8-2.2c-0.3-2.1-0.2-3.3,0-3.6c0.1-0.1,0.2-0.2,0.3-0.3
				l0.5,2.8L251.6,118.1z M269.9,100.7c-0.5,0.2-0.9,0.3-1.4,0.5c0,0.2-0.1,0.4-0.2,0.6c-3.3,7.3-13.1,7.1-19.9,4.3
				c-0.1,0.3-0.2,0.6-0.4,0.8c-1.3,2.7-5.2,0.3-4-2.3c0.2-0.3,0.3-0.7,0.5-1c-0.2-0.5-0.3-1.1-0.2-1.6c0-0.1,0.1-0.3,0.1-0.4
				c0.2-0.8,0.9-1.4,1.6-1.6c0,0,0.1-0.1,0.1-0.1c0.1-0.1,0.3-0.1,0.4-0.2c1.1-1.8,2.5-3.2,4.7-4c4.6-1.5,9.4,0,13.7,1.8
				c1.2-0.4,2.4-0.9,3.7-1.3C271.5,95.3,272.7,99.7,269.9,100.7z"/>
			<path class="st0" d="M145.8,125.5c-12.6-3-25.2-5.5-38-7.6c-1.3-0.2-1.8,1.7-0.5,1.9c0.1,0,0.1,0,0.2,0c1.3-0.2,2.6-0.4,3.9-0.9
				c1.4-0.5,2.3,0.8,2.1,1.9c10.7,1.9,21.2,4.1,31.8,6.6C146.5,127.7,147.1,125.8,145.8,125.5z"/>
		</g>
	</g>
	<polygon class="st0" points="268.5,125.6 247.4,122.9 226.3,125.3 205.1,122 184,127.1 162.9,116.9 141.7,118.7 120.6,124.6 
		99.5,120.6 78.4,125.4 57.3,121.6 36.1,123.6 12.4,119.8 13.5,134.2 36.1,135.4 57.2,132 78.4,133.4 99.5,136.7 120.6,133.6 
		141.7,134.3 162.9,132.6 184,138 205.1,135 226.3,136.8 247.4,137.1 268.5,131.2 291,132.6 291.8,120.7 	"/>
	<g>
		<path class="st1" d="M289.9,193.7h18.5v5.5h-6.3v20.5h-5.9v-20.5h-6.3V193.7z"/>
		<path class="st1" d="M351,193.7h9.1c2.8,0,4.9,0.7,6.5,2.1c1.6,1.4,2.4,3.2,2.4,5.6c0,1.3-0.4,2.7-1.1,4.2
			c-0.7,1.4-2.1,2.6-4.1,3.4l7.7,10.8h-6.8l-7.1-10.1H357v10.1H351V193.7z M357,198.3v6.8h1.3c3.1,0,4.7-1.2,4.7-3.6
			c0-1-0.4-1.8-1.2-2.3c-0.8-0.6-1.9-0.9-3.4-0.9H357z"/>
		<path class="st1" d="M424.4,193.7h4.6l11.2,26h-6l-2.2-5.1h-10.6l-2.2,5.1h-5.9L424.4,193.7z M426.7,202.2l-3.2,7.7h6.5
			L426.7,202.2z"/>
		<path class="st1" d="M477,193.7h6l7,17.3l7-17.3h6l-10.4,26h-5.2L477,193.7z"/>
		<path class="st1" d="M545.2,193.7h15.5v5.1h-9.6v5.2h9.6v5.1h-9.6v5.4h9.6v5.1h-15.5V193.7z"/>
		<path class="st1" d="M604.6,193.7h5.9v20.4h8.1v5.6h-14V193.7z"/>
	</g>
</g>
</svg>
